<svg width="173" height="54" viewBox="0 0 173 54" fill="none" xmlns="http://www.w3.org/2000/svg">
<path d="M146 0H27C12.0883 0 0 12.0883 0 27C0 41.9117 12.0883 54 27 54H146C160.912 54 173 41.9117 173 27C173 12.0883 160.912 0 146 0Z" fill="#212121"/>
<path d="M61.11 20.8798L61.567 19.5728H63.377C63.5067 19.9428 63.6364 20.3128 63.766 20.6828L63.835 20.8798H64.431L62.753 16.3138H62.192L60.513 20.8798H61.109H61.11ZM63.21 19.0898H61.734L61.807 18.8828L61.985 18.3738L62.196 17.7668C62.279 17.5279 62.3627 17.2892 62.447 17.0508H62.497L63.21 19.0888V19.0898ZM66.327 20.8798L66.454 20.5348C66.8323 19.5133 67.2093 18.4913 67.585 17.4688H67.005L66.075 20.2788H66.024L65.094 17.4688H64.513L65.771 20.8798H66.327ZM69.222 20.9398C69.449 20.9398 69.653 20.8918 69.834 20.7948C70.0145 20.6979 70.165 20.5533 70.269 20.3768H70.319V20.8798H70.837V18.5448C70.837 18.1908 70.725 17.9128 70.501 17.7108C70.277 17.5098 69.958 17.4088 69.544 17.4088C69.182 17.4088 68.878 17.4918 68.632 17.6568C68.5169 17.7285 68.4192 17.8249 68.346 17.9391C68.2728 18.0532 68.226 18.1823 68.209 18.3168H68.759C68.7781 18.2496 68.8108 18.1872 68.8552 18.1333C68.8996 18.0794 68.9547 18.0353 69.017 18.0038C69.152 17.9298 69.321 17.8938 69.525 17.8938C69.779 17.8938 69.971 17.9488 70.101 18.0608C70.23 18.1728 70.295 18.3338 70.295 18.5448V18.8548L69.313 18.9148C68.487 18.9638 68.073 19.2998 68.073 19.9248C68.073 20.2368 68.183 20.4838 68.4 20.6658C68.618 20.8488 68.892 20.9398 69.222 20.9398ZM69.322 20.4618C69.1469 20.4684 68.9745 20.4175 68.831 20.3168C68.7675 20.2707 68.7164 20.2096 68.6822 20.1389C68.648 20.0683 68.6318 19.9903 68.635 19.9118C68.635 19.5738 68.883 19.3888 69.38 19.3548L70.295 19.2948V19.6078C70.2969 19.7237 70.2731 19.8385 70.2252 19.944C70.1772 20.0495 70.1065 20.143 70.018 20.2178C69.8254 20.3838 69.5772 20.471 69.323 20.4618H69.322ZM72.218 16.8108C72.268 16.8117 72.3176 16.8022 72.3638 16.7829C72.4099 16.7636 72.4515 16.735 72.486 16.6988C72.5215 16.6639 72.5496 16.6222 72.5685 16.5761C72.5874 16.53 72.5968 16.4806 72.596 16.4308C72.597 16.3809 72.5877 16.3312 72.5688 16.285C72.5499 16.2387 72.5217 16.1968 72.486 16.1618C72.4512 16.1262 72.4095 16.098 72.3634 16.0791C72.3173 16.0602 72.2678 16.0509 72.218 16.0518C72.1682 16.0509 72.1187 16.0602 72.0726 16.0791C72.0266 16.098 71.9848 16.1262 71.95 16.1618C71.9142 16.1969 71.886 16.239 71.8671 16.2854C71.8481 16.3319 71.8389 16.3817 71.84 16.4318C71.8395 16.4814 71.849 16.5306 71.8679 16.5765C71.8868 16.6224 71.9147 16.664 71.95 16.6988C71.9845 16.735 72.0262 16.7636 72.0723 16.7829C72.1184 16.8022 72.168 16.8117 72.218 16.8108ZM72.486 20.8798V17.4698H71.944V20.8798H72.486ZM74.186 20.8798V16.1148H73.644V20.8798H74.186ZM76.277 20.9398C76.504 20.9398 76.708 20.8918 76.889 20.7948C77.0695 20.6979 77.22 20.5533 77.324 20.3768H77.374V20.8798H77.892V18.5448C77.892 18.1908 77.78 17.9128 77.556 17.7108C77.332 17.5098 77.013 17.4088 76.599 17.4088C76.237 17.4088 75.933 17.4918 75.687 17.6568C75.5719 17.7285 75.4742 17.8249 75.401 17.9391C75.3278 18.0532 75.281 18.1823 75.264 18.3168H75.814C75.8331 18.2496 75.8658 18.1872 75.9102 18.1333C75.9546 18.0794 76.0097 18.0353 76.072 18.0038C76.207 17.9298 76.376 17.8938 76.58 17.8938C76.834 17.8938 77.026 17.9488 77.156 18.0608C77.285 18.1728 77.35 18.3338 77.35 18.5448V18.8548L76.369 18.9148C75.542 18.9638 75.129 19.2998 75.129 19.9248C75.129 20.2368 75.238 20.4838 75.455 20.6658C75.673 20.8488 75.947 20.9398 76.277 20.9398ZM76.378 20.4618C76.2026 20.4686 76.0297 20.4177 75.886 20.3168C75.8225 20.2707 75.7714 20.2096 75.7372 20.1389C75.703 20.0683 75.6868 19.9903 75.69 19.9118C75.69 19.5738 75.938 19.3888 76.435 19.3548L77.35 19.2948V19.6078C77.352 19.7236 77.3283 19.8384 77.2806 19.9439C77.2329 20.0493 77.1623 20.1429 77.074 20.2178C76.8811 20.3841 76.6325 20.4712 76.378 20.4618ZM80.678 20.9398C81.108 20.9398 81.454 20.7798 81.713 20.4578C81.973 20.1358 82.103 19.7078 82.103 19.1748C82.103 18.6388 81.973 18.2108 81.715 17.8898C81.456 17.5698 81.11 17.4088 80.677 17.4088C80.444 17.4088 80.231 17.4628 80.038 17.5698C79.8545 17.6686 79.7055 17.8211 79.611 18.0068H79.561V16.1148H79.018V20.8798H79.535V20.3358H79.585C79.693 20.5258 79.843 20.6738 80.035 20.7798C80.228 20.8868 80.442 20.9398 80.677 20.9398H80.678ZM80.551 20.4498C80.4105 20.4553 80.2706 20.4271 80.1431 20.3676C80.0156 20.3081 79.9042 20.219 79.818 20.1078C79.638 19.8798 79.548 19.5688 79.548 19.1748C79.548 18.7798 79.638 18.4688 79.818 18.2408C79.9042 18.1296 80.0156 18.0406 80.1431 17.9811C80.2706 17.9216 80.4105 17.8934 80.551 17.8988C80.862 17.8988 81.105 18.0118 81.28 18.2378C81.454 18.4638 81.542 18.7758 81.542 19.1748C81.542 19.5728 81.454 19.8848 81.28 20.1108C81.105 20.3368 80.862 20.4498 80.551 20.4498ZM83.62 20.8798V16.1148H83.077V20.8798H83.62ZM86.127 20.9398C86.499 20.9398 86.812 20.8558 87.064 20.6868C87.316 20.5178 87.482 20.2878 87.559 19.9968H87.017C86.9482 20.1442 86.833 20.265 86.689 20.3408C86.5183 20.4251 86.3293 20.4656 86.139 20.4588C86.0084 20.4638 85.8784 20.4397 85.7582 20.3883C85.638 20.337 85.5307 20.2596 85.444 20.1618C85.269 19.9628 85.174 19.6958 85.159 19.3578V19.3328H87.604V19.1228C87.604 18.5938 87.472 18.1758 87.209 17.8688C86.946 17.5618 86.586 17.4088 86.127 17.4088C85.66 17.4088 85.288 17.5688 85.01 17.8918C84.733 18.2128 84.594 18.6418 84.594 19.1778C84.594 19.7178 84.732 20.1458 85.007 20.4638C85.283 20.7808 85.657 20.9398 86.127 20.9398ZM87.033 18.8928H85.159C85.179 18.5908 85.278 18.3488 85.452 18.1648C85.5378 18.0744 85.6418 18.0031 85.7571 17.9557C85.8724 17.9083 85.9964 17.8858 86.121 17.8898C86.2433 17.8853 86.3651 17.9076 86.4779 17.9551C86.5907 18.0026 86.6918 18.0742 86.774 18.1648C86.94 18.3488 87.026 18.5908 87.033 18.8928ZM91.858 20.9398C92.342 20.9398 92.724 20.7818 93.005 20.4668C93.285 20.1518 93.425 19.7208 93.425 19.1748C93.425 18.6258 93.285 18.1948 93.005 17.8798C92.724 17.5658 92.342 17.4088 91.858 17.4088C91.374 17.4088 90.992 17.5658 90.711 17.8798C90.431 18.1948 90.291 18.6258 90.291 19.1748C90.291 19.7208 90.431 20.1518 90.711 20.4668C90.992 20.7818 91.374 20.9398 91.858 20.9398ZM91.858 20.4498C91.536 20.4498 91.288 20.3378 91.113 20.1138C90.939 19.8908 90.852 19.5768 90.852 19.1738C90.852 18.7698 90.939 18.4558 91.113 18.2338C91.288 18.0108 91.536 17.8988 91.858 17.8988C92.18 17.8988 92.428 18.0108 92.602 18.2328C92.777 18.4558 92.864 18.7698 92.864 19.1748C92.864 19.5768 92.777 19.8908 92.602 20.1148C92.428 20.3378 92.18 20.4498 91.858 20.4498ZM94.911 20.8798V18.8608C94.911 18.5608 94.992 18.3268 95.154 18.1558C95.316 17.9848 95.532 17.8988 95.804 17.8988C96.075 17.8988 96.276 17.9728 96.408 18.1208C96.539 18.2688 96.605 18.4958 96.605 18.8038V20.8798H97.148V18.6708C97.148 18.2658 97.045 17.9548 96.84 17.7368C96.635 17.5178 96.341 17.4088 95.958 17.4088C95.698 17.4088 95.484 17.4618 95.316 17.5668C95.1486 17.6726 95.0163 17.8258 94.936 18.0068H94.886V17.4688H94.368V20.8798H94.911ZM101.351 20.9048C101.458 20.9052 101.566 20.8948 101.671 20.8738V20.4138C101.587 20.4232 101.503 20.4276 101.419 20.4268C101.241 20.4268 101.113 20.3818 101.033 20.2908C100.953 20.2008 100.913 20.0548 100.913 19.8548V17.9248H101.67V17.4688H100.913V16.5858H100.37V17.4688H99.822V17.9248H100.37V19.9948C100.37 20.3188 100.447 20.5518 100.6 20.6928C100.752 20.8348 101.002 20.9048 101.352 20.9048H101.351ZM103.155 20.8798V18.8608C103.155 18.5718 103.236 18.3398 103.398 18.1638C103.56 17.9878 103.794 17.8988 104.098 17.8988C104.355 17.8988 104.55 17.9748 104.684 18.1258C104.817 18.2758 104.884 18.5028 104.884 18.8038V20.8798H105.427V18.6708C105.427 18.2708 105.321 17.9608 105.11 17.7398C104.898 17.5198 104.613 17.4088 104.253 17.4088C103.993 17.4088 103.774 17.4618 103.599 17.5668C103.426 17.6695 103.289 17.8232 103.206 18.0068H103.156V16.1148H102.613V20.8798H103.155ZM107.871 20.9398C108.243 20.9398 108.556 20.8558 108.808 20.6868C109.06 20.5178 109.225 20.2878 109.303 19.9968H108.761C108.692 20.1444 108.576 20.2652 108.432 20.3408C108.262 20.4248 108.074 20.4653 107.884 20.4588C107.753 20.4638 107.623 20.4398 107.503 20.3885C107.382 20.3371 107.275 20.2597 107.188 20.1618C107.012 19.9628 106.918 19.6958 106.903 19.3578V19.3328H109.347V19.1228C109.347 18.5938 109.216 18.1758 108.953 17.8688C108.69 17.5618 108.329 17.4088 107.871 17.4088C107.404 17.4088 107.031 17.5688 106.754 17.8918C106.477 18.2128 106.338 18.6418 106.338 19.1778C106.338 19.7178 106.476 20.1458 106.751 20.4638C107.027 20.7808 107.4 20.9398 107.871 20.9398ZM108.776 18.8928H106.903C106.923 18.5908 107.021 18.3488 107.196 18.1648C107.282 18.0744 107.386 18.0031 107.501 17.9557C107.616 17.9083 107.74 17.8858 107.865 17.8898C107.987 17.8853 108.109 17.9076 108.222 17.9551C108.335 18.0026 108.436 18.0742 108.518 18.1648C108.684 18.3488 108.77 18.5908 108.776 18.8928ZM61.772 36.7198L62.775 33.8538H66.746C67.0804 34.8093 67.4147 35.7644 67.749 36.7198H69.057L65.377 26.7068H64.145L60.465 36.7198H61.772ZM66.38 32.7928H63.142L63.305 32.3308C63.5978 31.4975 63.8894 30.6639 64.18 29.8298L64.578 28.6878L64.74 28.2268H64.782L66.38 32.7928ZM71.892 39.1278V35.5478H71.92C72.136 35.9408 72.443 36.2548 72.84 36.4908C73.236 36.7268 73.693 36.8448 74.21 36.8448C75.118 36.8448 75.854 36.5048 76.416 35.8248C76.979 35.1448 77.26 34.2408 77.26 33.1118C77.26 31.9788 76.977 31.0728 76.41 30.3948C75.842 29.7178 75.1 29.3788 74.182 29.3788C73.6944 29.3695 73.2139 29.497 72.795 29.7468C72.4001 29.9826 72.0761 30.3204 71.857 30.7248H71.83V29.5038H70.688V39.1278H71.892ZM73.947 35.7828C73.333 35.7828 72.837 35.5388 72.456 35.0508C72.076 34.5628 71.886 33.9168 71.886 33.1108C71.886 32.3108 72.076 31.6658 72.456 31.1758C72.836 30.6858 73.333 30.4398 73.946 30.4398C74.588 30.4398 75.095 30.6818 75.469 31.1658C75.842 31.6488 76.029 32.2978 76.029 33.1118C76.029 33.9308 75.842 34.5808 75.469 35.0618C75.095 35.5418 74.588 35.7828 73.947 35.7828ZM80.351 39.1278V35.5478H80.379C80.596 35.9408 80.903 36.2548 81.299 36.4908C81.696 36.7268 82.152 36.8448 82.669 36.8448C83.577 36.8448 84.313 36.5048 84.876 35.8248C85.438 35.1448 85.72 34.2408 85.72 33.1118C85.72 31.9788 85.436 31.0728 84.869 30.3948C84.302 29.7178 83.559 29.3788 82.641 29.3788C82.121 29.3788 81.658 29.5008 81.254 29.7468C80.8595 29.9827 80.5358 30.3206 80.317 30.7248H80.289V29.5038H79.148V39.1278H80.351ZM82.406 35.7828C81.793 35.7828 81.296 35.5388 80.916 35.0508C80.535 34.5628 80.345 33.9168 80.345 33.1108C80.345 32.3108 80.535 31.6658 80.915 31.1758C81.295 30.6858 81.793 30.4398 82.406 30.4398C83.047 30.4398 83.554 30.6818 83.928 31.1658C84.302 31.6488 84.488 32.2978 84.488 33.1118C84.488 33.9308 84.302 34.5808 83.928 35.0618C83.554 35.5418 83.048 35.7828 82.406 35.7828ZM88.873 36.7198V26.7068H87.67V36.7198H88.874H88.873ZM94.136 36.8448C94.92 36.8448 95.59 36.6368 96.146 36.2198C96.702 35.8038 97.03 35.2808 97.132 34.6518H95.949C95.8451 34.9928 95.6232 35.2856 95.323 35.4778C95.007 35.6908 94.621 35.7978 94.164 35.7978C93.518 35.7978 93.007 35.5878 92.628 35.1688C92.25 34.7508 92.061 34.1968 92.061 33.5068V33.4378H97.221V32.9798C97.221 31.8878 96.941 31.0148 96.381 30.3598C95.821 29.7058 95.054 29.3788 94.081 29.3788C93.09 29.3788 92.299 29.7258 91.708 30.4188C91.118 31.1138 90.823 32.0198 90.823 33.1388C90.823 34.2728 91.118 35.1738 91.708 35.8418C92.298 36.5108 93.108 36.8448 94.136 36.8448ZM95.976 32.4948H92.068C92.105 31.8928 92.305 31.3978 92.67 31.0088C93.034 30.6208 93.498 30.4268 94.06 30.4268C94.628 30.4268 95.085 30.6198 95.434 31.0058C95.782 31.3918 95.963 31.8878 95.977 32.4938L95.976 32.4948ZM106.144 36.8868C107.26 36.8868 108.154 36.6158 108.824 36.0748C109.495 35.5328 109.831 34.7998 109.831 33.8748C109.831 33.1668 109.607 32.5958 109.16 32.1608C108.712 31.7258 107.968 31.3958 106.925 31.1688L105.818 30.9258C105.136 30.7778 104.649 30.5678 104.358 30.2948C104.218 30.1688 104.107 30.0144 104.032 29.8419C103.957 29.6694 103.92 29.4829 103.923 29.2948C103.923 28.7868 104.135 28.3878 104.559 28.0988C104.984 27.8088 105.507 27.6648 106.129 27.6648C106.78 27.6648 107.309 27.8218 107.714 28.1368C108.12 28.4508 108.35 28.8838 108.406 29.4338H109.651C109.623 28.5838 109.284 27.8878 108.634 27.3488C107.984 26.8098 107.16 26.5408 106.164 26.5408C105.131 26.5408 104.286 26.8018 103.629 27.3248C102.972 27.8478 102.643 28.5228 102.643 29.3508C102.643 30.0628 102.87 30.6488 103.324 31.1068C103.779 31.5648 104.506 31.9018 105.507 32.1198L106.614 32.3618C107.306 32.5148 107.802 32.7318 108.101 33.0118C108.401 33.2918 108.551 33.6418 108.551 34.0618C108.551 34.5518 108.331 34.9588 107.891 35.2798C107.45 35.6018 106.891 35.7618 106.213 35.7618C105.498 35.7618 104.909 35.6088 104.445 35.3008C103.982 34.9928 103.713 34.5708 103.639 34.0348H102.394C102.454 34.8998 102.822 35.5908 103.497 36.1088C104.173 36.6268 105.055 36.8868 106.144 36.8868ZM114.001 36.7758C114.144 36.7758 114.288 36.7708 114.433 36.7618C114.579 36.7518 114.688 36.7388 114.763 36.7198V35.7068C114.686 35.7144 114.61 35.721 114.533 35.7268C114.423 35.7368 114.333 35.7418 114.264 35.7418C113.955 35.7418 113.729 35.6638 113.586 35.5088C113.443 35.3538 113.372 35.1128 113.372 34.7838V30.4958H114.769V29.5038H113.372V27.7618H112.168V29.5038H111.096V30.4958H112.168V34.8458C112.168 35.5398 112.308 36.0358 112.59 36.3308C112.871 36.6268 113.342 36.7758 114.001 36.7758ZM119.493 36.8448C120.484 36.8448 121.287 36.5098 121.9 35.8388C122.514 35.1678 122.82 34.2588 122.82 33.1118C122.82 31.9598 122.514 31.0498 121.9 30.3818C121.287 29.7128 120.484 29.3788 119.493 29.3788C118.497 29.3788 117.692 29.7128 117.078 30.3808C116.465 31.0498 116.158 31.9598 116.158 33.1108C116.158 34.2588 116.465 35.1678 117.078 35.8388C117.692 36.5088 118.497 36.8448 119.493 36.8448ZM119.493 35.7828C118.856 35.7828 118.346 35.5508 117.96 35.0858C117.575 34.6208 117.383 33.9628 117.383 33.1118C117.383 32.2608 117.575 31.6018 117.96 31.1378C118.346 30.6728 118.856 30.4398 119.493 30.4398C120.129 30.4398 120.639 30.6728 121.022 31.1378C121.404 31.6028 121.596 32.2608 121.596 33.1118C121.596 33.9628 121.404 34.6208 121.022 35.0858C120.639 35.5508 120.129 35.7828 119.492 35.7828H119.493ZM125.911 36.7198V32.2238C125.911 31.7138 126.052 31.3048 126.333 30.9958C126.615 30.6858 126.988 30.5308 127.454 30.5308C127.602 30.5308 127.734 30.5378 127.852 30.5508C127.969 30.5648 128.052 30.5808 128.097 30.5998V29.4268C128.032 29.4149 127.966 29.4049 127.9 29.3968C127.805 29.3844 127.709 29.3784 127.613 29.3788C126.709 29.3788 126.128 29.8138 125.87 30.6828H125.842V29.5028H124.708V36.7198H125.911ZM132.365 36.8448C133.149 36.8448 133.819 36.6368 134.375 36.2198C134.93 35.8038 135.259 35.2808 135.36 34.6518H134.177C134.076 34.9898 133.867 35.2648 133.551 35.4778C133.235 35.6908 132.849 35.7978 132.392 35.7978C131.747 35.7978 131.235 35.5878 130.856 35.1688C130.478 34.7508 130.289 34.1968 130.289 33.5068V33.4378H135.45V32.9798C135.45 31.8878 135.17 31.0148 134.61 30.3598C134.05 29.7058 133.282 29.3788 132.31 29.3788C131.318 29.3788 130.527 29.7258 129.936 30.4188C129.346 31.1138 129.051 32.0198 129.051 33.1388C129.051 34.2728 129.346 35.1738 129.936 35.8418C130.526 36.5108 131.336 36.8448 132.365 36.8448ZM134.205 32.4948H130.296C130.333 31.8928 130.534 31.3978 130.898 31.0088C131.262 30.6208 131.726 30.4268 132.288 30.4268C132.856 30.4268 133.314 30.6198 133.662 31.0058C134.01 31.3918 134.191 31.8878 134.205 32.4938V32.4948Z" fill="white"/>
<path opacity="0.703" fill-rule="evenodd" clip-rule="evenodd" d="M31.906 47.605C43.262 47.605 52.467 38.38 52.467 27C52.467 15.62 43.262 6.39502 31.906 6.39502C20.55 6.39502 11.344 15.62 11.344 27C11.344 38.38 20.55 47.605 31.906 47.605V47.605Z" stroke="white"/>
<path fill-rule="evenodd" clip-rule="evenodd" d="M40.414 30.293C40.084 31.397 39.561 32.5 38.849 33.603C37.754 35.333 36.664 36.197 35.579 36.197C35.163 36.197 34.569 36.056 33.797 35.774C33.067 35.491 32.427 35.35 31.876 35.35C31.358 35.35 30.756 35.496 30.069 35.787C29.382 36.087 28.822 36.237 28.389 36.237C27.099 36.237 25.823 35.094 24.559 32.808C23.312 30.505 22.689 28.286 22.689 26.15C22.689 24.138 23.168 22.488 24.126 21.2C25.076 19.929 26.281 19.294 27.74 19.294C28.351 19.294 29.102 19.426 29.992 19.691C30.875 19.955 31.46 20.088 31.748 20.088C32.13 20.088 32.737 19.938 33.568 19.638C34.433 19.338 35.168 19.188 35.769 19.188C36.7414 19.1757 37.6917 19.4773 38.479 20.048C38.921 20.366 39.362 20.807 39.803 21.372C39.133 21.963 38.649 22.484 38.353 22.934C37.8074 23.7431 37.5188 24.6981 37.525 25.674C37.525 26.768 37.818 27.752 38.403 28.626C38.989 29.499 39.659 30.056 40.413 30.293H40.414ZM35.629 14.766C35.629 15.305 35.506 15.905 35.26 16.566C34.9925 17.2483 34.5902 17.8697 34.077 18.393C33.619 18.87 33.161 19.188 32.703 19.346C32.389 19.444 31.948 19.519 31.379 19.571C31.405 18.257 31.736 17.123 32.372 16.17C33 15.225 34.06 14.572 35.553 14.21C35.562 14.237 35.573 14.286 35.585 14.356C35.598 14.426 35.608 14.476 35.617 14.502C35.617 14.537 35.619 14.582 35.623 14.634C35.627 14.687 35.629 14.731 35.629 14.766V14.766Z" fill="white"/>
</svg>
