<svg width="19" height="23" viewBox="0 0 19 23" fill="none" xmlns="http://www.w3.org/2000/svg">
<path fill-rule="evenodd" clip-rule="evenodd" d="M18.414 16.293C18.084 17.397 17.561 18.5 16.849 19.603C15.754 21.333 14.664 22.197 13.579 22.197C13.163 22.197 12.569 22.056 11.797 21.774C11.067 21.491 10.427 21.35 9.87603 21.35C9.35803 21.35 8.75603 21.496 8.06903 21.787C7.38203 22.087 6.82203 22.237 6.38903 22.237C5.09903 22.237 3.82303 21.094 2.55903 18.808C1.31203 16.505 0.689026 14.286 0.689026 12.15C0.689026 10.138 1.16803 8.48796 2.12603 7.19996C3.07603 5.92896 4.28103 5.29396 5.74003 5.29396C6.35103 5.29396 7.10203 5.42596 7.99203 5.69096C8.87503 5.95496 9.46003 6.08796 9.74803 6.08796C10.13 6.08796 10.737 5.93796 11.568 5.63796C12.433 5.33796 13.168 5.18796 13.769 5.18796C14.7414 5.17566 15.6917 5.47725 16.479 6.04796C16.921 6.36596 17.362 6.80696 17.803 7.37196C17.133 7.96296 16.649 8.48396 16.353 8.93396C15.8074 9.74309 15.5188 10.6981 15.525 11.674C15.525 12.768 15.818 13.752 16.403 14.626C16.989 15.499 17.659 16.056 18.413 16.293H18.414ZM13.629 0.765961C13.629 1.30496 13.506 1.90496 13.26 2.56596C12.9925 3.24831 12.5902 3.8697 12.077 4.39296C11.619 4.86996 11.161 5.18796 10.703 5.34596C10.389 5.44396 9.94803 5.51896 9.37903 5.57096C9.40503 4.25696 9.73603 3.12296 10.372 2.16996C11 1.22496 12.06 0.571961 13.553 0.209961C13.562 0.236961 13.573 0.285961 13.585 0.355961C13.598 0.425961 13.608 0.475961 13.617 0.501961C13.617 0.536961 13.619 0.581961 13.623 0.633961C13.627 0.686961 13.629 0.730961 13.629 0.765961Z" fill="white"/>
</svg>
