<svg width="150" height="50" viewBox="0 0 150 50" fill="none" xmlns="http://www.w3.org/2000/svg">
<path fill-rule="evenodd" clip-rule="evenodd" d="M149.167 0.833333H0.833333V49.1667H149.167V0.833333ZM0 0V50H150V0H0Z" fill="#0C2F75"/>
<path d="M46.4992 14.5C47.1348 14.5 47.6592 14.7267 48.0726 15.18C48.4903 15.6289 48.6992 16.18 48.6992 16.8333C48.6992 17.4867 48.4903 18.04 48.0726 18.4933C47.6592 18.9422 47.1348 19.1667 46.4992 19.1667H44.6992V14.5H46.4992ZM46.4992 18.7267C47.0103 18.7267 47.4281 18.5444 47.7526 18.18C48.0814 17.8155 48.2459 17.3667 48.2459 16.8333C48.2459 16.3 48.0814 15.8511 47.7526 15.4867C47.4281 15.1222 47.0103 14.94 46.4992 14.94H45.1659V18.7267H46.4992Z" fill="#0C2F75"/>
<path d="M52.2241 18.7467C51.8863 19.08 51.473 19.2467 50.9841 19.2467C50.4952 19.2467 50.0796 19.08 49.7374 18.7467C49.3996 18.4089 49.2307 17.9933 49.2307 17.5C49.2307 17.0067 49.3996 16.5933 49.7374 16.26C50.0796 15.9222 50.4952 15.7533 50.9841 15.7533C51.473 15.7533 51.8863 15.9222 52.2241 16.26C52.5663 16.5933 52.7374 17.0067 52.7374 17.5C52.7374 17.9933 52.5663 18.4089 52.2241 18.7467ZM50.0507 18.44C50.3041 18.6933 50.6152 18.82 50.9841 18.82C51.353 18.82 51.6641 18.6933 51.9174 18.44C52.1707 18.1822 52.2974 17.8689 52.2974 17.5C52.2974 17.1311 52.1707 16.82 51.9174 16.5667C51.6641 16.3089 51.353 16.18 50.9841 16.18C50.6152 16.18 50.3041 16.3089 50.0507 16.5667C49.7974 16.82 49.6707 17.1311 49.6707 17.5C49.6707 17.8689 49.7974 18.1822 50.0507 18.44Z" fill="#0C2F75"/>
<path d="M57.3568 15.8333H57.8102L56.7835 19.1667H56.3035L55.4435 16.48L54.5835 19.1667H54.1035L53.0768 15.8333H53.5302L54.3502 18.6L55.2235 15.8333H55.6635L56.5368 18.6L57.3568 15.8333Z" fill="#0C2F75"/>
<path d="M60.0337 15.7533C60.4381 15.7533 60.7559 15.8778 60.987 16.1267C61.2226 16.3711 61.3404 16.7022 61.3404 17.12V19.1667H60.9004V17.12C60.9004 16.8222 60.8204 16.5911 60.6604 16.4267C60.5048 16.2622 60.2826 16.18 59.9937 16.18C59.6737 16.18 59.4137 16.2822 59.2137 16.4867C59.0137 16.6867 58.9137 16.9978 58.9137 17.42V19.1667H58.4737V15.8333H58.9137V16.3533C59.1626 15.9533 59.5359 15.7533 60.0337 15.7533Z" fill="#0C2F75"/>
<path d="M62.1911 19.1667V14.3H62.6311V19.1667H62.1911Z" fill="#0C2F75"/>
<path d="M66.3582 18.7467C66.0204 19.08 65.6071 19.2467 65.1182 19.2467C64.6293 19.2467 64.2137 19.08 63.8715 18.7467C63.5337 18.4089 63.3648 17.9933 63.3648 17.5C63.3648 17.0067 63.5337 16.5933 63.8715 16.26C64.2137 15.9222 64.6293 15.7533 65.1182 15.7533C65.6071 15.7533 66.0204 15.9222 66.3582 16.26C66.7004 16.5933 66.8715 17.0067 66.8715 17.5C66.8715 17.9933 66.7004 18.4089 66.3582 18.7467ZM64.1848 18.44C64.4382 18.6933 64.7493 18.82 65.1182 18.82C65.4871 18.82 65.7982 18.6933 66.0515 18.44C66.3048 18.1822 66.4315 17.8689 66.4315 17.5C66.4315 17.1311 66.3048 16.82 66.0515 16.5667C65.7982 16.3089 65.4871 16.18 65.1182 16.18C64.7493 16.18 64.4382 16.3089 64.1848 16.5667C63.9315 16.82 63.8048 17.1311 63.8048 17.5C63.8048 17.8689 63.9315 18.1822 64.1848 18.44Z" fill="#0C2F75"/>
<path d="M70.4745 15.8333H70.9145V19.1667H70.4745V18.5133C70.1678 19.0022 69.7189 19.2467 69.1278 19.2467C68.6523 19.2467 68.2456 19.0778 67.9078 18.74C67.5745 18.4022 67.4078 17.9889 67.4078 17.5C67.4078 17.0111 67.5745 16.5978 67.9078 16.26C68.2456 15.9222 68.6523 15.7533 69.1278 15.7533C69.7189 15.7533 70.1678 15.9978 70.4745 16.4867V15.8333ZM68.2278 18.44C68.4811 18.6933 68.7923 18.82 69.1611 18.82C69.53 18.82 69.8411 18.6933 70.0945 18.44C70.3478 18.1822 70.4745 17.8689 70.4745 17.5C70.4745 17.1311 70.3478 16.82 70.0945 16.5667C69.8411 16.3089 69.53 16.18 69.1611 16.18C68.7923 16.18 68.4811 16.3089 68.2278 16.5667C67.9745 16.82 67.8478 17.1311 67.8478 17.5C67.8478 17.8689 67.9745 18.1822 68.2278 18.44Z" fill="#0C2F75"/>
<path d="M74.7128 14.5H75.1528V19.1667H74.7128V18.5133C74.4061 19.0022 73.9572 19.2467 73.3661 19.2467C72.8905 19.2467 72.4839 19.0778 72.1461 18.74C71.8128 18.4022 71.6461 17.9889 71.6461 17.5C71.6461 17.0111 71.8128 16.5978 72.1461 16.26C72.4839 15.9222 72.8905 15.7533 73.3661 15.7533C73.9572 15.7533 74.4061 15.9978 74.7128 16.4867V14.5ZM72.4661 18.44C72.7194 18.6933 73.0305 18.82 73.3994 18.82C73.7683 18.82 74.0794 18.6933 74.3328 18.44C74.5861 18.1822 74.7128 17.8689 74.7128 17.5C74.7128 17.1311 74.5861 16.82 74.3328 16.5667C74.0794 16.3089 73.7683 16.18 73.3994 16.18C73.0305 16.18 72.7194 16.3089 72.4661 16.5667C72.2128 16.82 72.0861 17.1311 72.0861 17.5C72.0861 17.8689 72.2128 18.1822 72.4661 18.44Z" fill="#0C2F75"/>
<path d="M79.4177 14.8467C79.0933 14.82 78.851 14.8755 78.691 15.0133C78.5355 15.1511 78.4577 15.38 78.4577 15.7V15.8333H79.4177V16.26H78.4577V19.1667H78.0177V16.26H77.451V15.8333H78.0177V15.7C78.0177 15.2644 78.1377 14.9355 78.3777 14.7133C78.6222 14.4867 78.9688 14.3889 79.4177 14.42V14.8467Z" fill="#0C2F75"/>
<path d="M80.3265 16.3867C80.5309 15.9822 80.882 15.78 81.3798 15.78V16.2067C81.0776 16.2067 80.8265 16.2955 80.6265 16.4733C80.4265 16.6511 80.3265 16.9311 80.3265 17.3133V19.1667H79.8865V15.8333H80.3265V16.3867Z" fill="#0C2F75"/>
<path d="M84.5743 18.7467C84.2365 19.08 83.8232 19.2467 83.3343 19.2467C82.8454 19.2467 82.4299 19.08 82.0877 18.7467C81.7499 18.4089 81.581 17.9933 81.581 17.5C81.581 17.0067 81.7499 16.5933 82.0877 16.26C82.4299 15.9222 82.8454 15.7533 83.3343 15.7533C83.8232 15.7533 84.2365 15.9222 84.5743 16.26C84.9165 16.5933 85.0877 17.0067 85.0877 17.5C85.0877 17.9933 84.9165 18.4089 84.5743 18.7467ZM82.401 18.44C82.6543 18.6933 82.9654 18.82 83.3343 18.82C83.7032 18.82 84.0143 18.6933 84.2677 18.44C84.521 18.1822 84.6477 17.8689 84.6477 17.5C84.6477 17.1311 84.521 16.82 84.2677 16.5667C84.0143 16.3089 83.7032 16.18 83.3343 16.18C82.9654 16.18 82.6543 16.3089 82.401 16.5667C82.1477 16.82 82.021 17.1311 82.021 17.5C82.021 17.8689 82.1477 18.1822 82.401 18.44Z" fill="#0C2F75"/>
<path d="M89.3773 15.7533C89.7506 15.7533 90.0506 15.8733 90.2773 16.1133C90.5084 16.3533 90.624 16.6778 90.624 17.0867V19.1667H90.184V17.0867C90.184 16.7978 90.1084 16.5755 89.9573 16.42C89.8106 16.26 89.6151 16.18 89.3706 16.18C89.0951 16.18 88.8706 16.2733 88.6973 16.46C88.5284 16.6422 88.444 16.9289 88.444 17.32V19.1667H88.004V17.0867C88.004 16.7933 87.9328 16.5689 87.7906 16.4133C87.6528 16.2578 87.464 16.18 87.224 16.18C86.9573 16.18 86.7306 16.2733 86.544 16.46C86.3573 16.6467 86.264 16.9333 86.264 17.32V19.1667H85.824V15.8333H86.264V16.32C86.504 15.9422 86.844 15.7533 87.284 15.7533C87.764 15.7533 88.1017 15.9555 88.2973 16.36C88.5373 15.9555 88.8973 15.7533 89.3773 15.7533Z" fill="#0C2F75"/>
<path d="M94.9083 16.26H93.9483V18.28C93.9483 18.4622 93.9839 18.5933 94.055 18.6733C94.1261 18.7489 94.2328 18.7889 94.375 18.7933C94.5172 18.7933 94.695 18.7889 94.9083 18.78V19.1667C94.4417 19.2378 94.0906 19.2044 93.855 19.0667C93.6239 18.9289 93.5083 18.6667 93.5083 18.28V16.26H92.8083V15.8333H93.5083V15.0333L93.9483 14.9V15.8333H94.9083V16.26Z" fill="#0C2F75"/>
<path d="M97.2017 15.7533C97.6061 15.7533 97.9239 15.8778 98.155 16.1267C98.3906 16.3711 98.5083 16.7022 98.5083 17.12V19.1667H98.0683V17.12C98.0683 16.8222 97.9883 16.5911 97.8283 16.4267C97.6728 16.2622 97.4506 16.18 97.1617 16.18C96.8417 16.18 96.5817 16.2822 96.3817 16.4867C96.1817 16.6867 96.0817 16.9978 96.0817 17.42V19.1667H95.6417V14.5H96.0817V16.3533C96.3306 15.9533 96.7039 15.7533 97.2017 15.7533Z" fill="#0C2F75"/>
<path d="M100.899 15.7533C101.392 15.7533 101.79 15.9289 102.092 16.28C102.399 16.6267 102.552 17.0378 102.552 17.5133C102.552 17.5622 102.548 17.6311 102.539 17.72H99.6124C99.6569 18.0578 99.7991 18.3267 100.039 18.5267C100.284 18.7222 100.584 18.82 100.939 18.82C101.192 18.82 101.41 18.7689 101.592 18.6667C101.779 18.56 101.919 18.4222 102.012 18.2533L102.399 18.48C102.252 18.7155 102.052 18.9022 101.799 19.04C101.546 19.1778 101.257 19.2467 100.932 19.2467C100.408 19.2467 99.9813 19.0822 99.6525 18.7533C99.3236 18.4244 99.1591 18.0067 99.1591 17.5C99.1591 17.0022 99.3213 16.5867 99.6458 16.2533C99.9702 15.92 100.388 15.7533 100.899 15.7533ZM100.899 16.18C100.552 16.18 100.261 16.2844 100.026 16.4933C99.7947 16.6978 99.6569 16.9644 99.6124 17.2933H102.099C102.055 16.9422 101.919 16.6689 101.692 16.4733C101.466 16.2778 101.201 16.18 100.899 16.18Z" fill="#0C2F75"/>
<path d="M50.3892 33.3333L49.6542 31.2183H45.1842L44.4492 33.3333H42.5742L46.3842 22.8333H48.4542L52.2492 33.3333H50.3892ZM45.7542 29.5983H49.0842L47.4192 24.8583L45.7542 29.5983Z" fill="#0C2F75"/>
<path d="M57.5183 25.6383C58.5483 25.6383 59.4283 26.0233 60.1583 26.7933C60.8883 27.5533 61.2533 28.4833 61.2533 29.5833C61.2533 30.6933 60.8883 31.6283 60.1583 32.3883C59.4283 33.1483 58.5483 33.5283 57.5183 33.5283C56.3783 33.5283 55.5033 33.1083 54.8933 32.2683V36.3333H53.2733V25.8333H54.8933V26.9133C55.5033 26.0633 56.3783 25.6383 57.5183 25.6383ZM55.5683 31.3083C56.0183 31.7583 56.5833 31.9833 57.2633 31.9833C57.9433 31.9833 58.5083 31.7583 58.9583 31.3083C59.4083 30.8483 59.6333 30.2733 59.6333 29.5833C59.6333 28.8933 59.4083 28.3233 58.9583 27.8733C58.5083 27.4133 57.9433 27.1833 57.2633 27.1833C56.5833 27.1833 56.0183 27.4133 55.5683 27.8733C55.1183 28.3233 54.8933 28.8933 54.8933 29.5833C54.8933 30.2733 55.1183 30.8483 55.5683 31.3083Z" fill="#0C2F75"/>
<path d="M66.9666 25.6383C67.9966 25.6383 68.8766 26.0233 69.6066 26.7933C70.3366 27.5533 70.7016 28.4833 70.7016 29.5833C70.7016 30.6933 70.3366 31.6283 69.6066 32.3883C68.8766 33.1483 67.9966 33.5283 66.9666 33.5283C65.8266 33.5283 64.9516 33.1083 64.3416 32.2683V36.3333H62.7216V25.8333H64.3416V26.9133C64.9516 26.0633 65.8266 25.6383 66.9666 25.6383ZM65.0166 31.3083C65.4666 31.7583 66.0316 31.9833 66.7116 31.9833C67.3916 31.9833 67.9566 31.7583 68.4066 31.3083C68.8566 30.8483 69.0816 30.2733 69.0816 29.5833C69.0816 28.8933 68.8566 28.3233 68.4066 27.8733C67.9566 27.4133 67.3916 27.1833 66.7116 27.1833C66.0316 27.1833 65.4666 27.4133 65.0166 27.8733C64.5666 28.3233 64.3416 28.8933 64.3416 29.5833C64.3416 30.2733 64.5666 30.8483 65.0166 31.3083Z" fill="#0C2F75"/>
<path d="M79.5198 33.5283C78.5098 33.5283 77.6498 33.2983 76.9398 32.8383C76.2398 32.3783 75.7498 31.7483 75.4698 30.9483L76.9548 30.0783C77.3748 31.2583 78.2448 31.8483 79.5648 31.8483C80.2148 31.8483 80.6998 31.7233 81.0198 31.4733C81.3498 31.2133 81.5148 30.8783 81.5148 30.4683C81.5148 30.0383 81.3398 29.7133 80.9898 29.4933C80.6398 29.2633 80.0198 29.0133 79.1298 28.7433C78.6298 28.5933 78.2248 28.4533 77.9148 28.3233C77.6048 28.1933 77.2748 28.0133 76.9248 27.7833C76.5848 27.5433 76.3298 27.2483 76.1598 26.8983C75.9898 26.5483 75.9048 26.1383 75.9048 25.6683C75.9048 24.7383 76.2348 24.0033 76.8948 23.4633C77.5548 22.9133 78.3498 22.6383 79.2798 22.6383C80.1198 22.6383 80.8548 22.8433 81.4848 23.2533C82.1148 23.6633 82.5998 24.2283 82.9398 24.9483L81.4848 25.7883C81.0448 24.8083 80.3098 24.3183 79.2798 24.3183C78.7798 24.3183 78.3798 24.4383 78.0798 24.6783C77.7798 24.9083 77.6298 25.2233 77.6298 25.6233C77.6298 26.0133 77.7798 26.3233 78.0798 26.5533C78.3898 26.7733 78.9448 27.0083 79.7448 27.2583C80.1448 27.3883 80.4348 27.4883 80.6148 27.5583C80.8048 27.6183 81.0648 27.7183 81.3948 27.8583C81.7348 27.9983 81.9898 28.1383 82.1598 28.2783C82.3298 28.4183 82.5098 28.5933 82.6998 28.8033C82.8998 29.0133 83.0398 29.2533 83.1198 29.5233C83.1998 29.7933 83.2398 30.0983 83.2398 30.4383C83.2398 31.3883 82.8948 32.1433 82.2048 32.7033C81.5248 33.2533 80.6298 33.5283 79.5198 33.5283Z" fill="#0C2F75"/>
<path d="M88.5862 27.3933H86.7262V30.9933C86.7262 31.3033 86.7962 31.5283 86.9362 31.6683C87.0762 31.7983 87.2812 31.8733 87.5513 31.8933C87.8312 31.9033 88.1762 31.8983 88.5862 31.8783V33.3333C87.3462 33.4833 86.4562 33.3783 85.9162 33.0183C85.3762 32.6483 85.1062 31.9733 85.1062 30.9933V27.3933H83.7262V25.8333H85.1062V24.2133L86.7262 23.7333V25.8333H88.5862V27.3933Z" fill="#0C2F75"/>
<path d="M93.2879 33.5283C92.1879 33.5283 91.2529 33.1483 90.4829 32.3883C89.7129 31.6283 89.3279 30.6933 89.3279 29.5833C89.3279 28.4733 89.7129 27.5383 90.4829 26.7783C91.2529 26.0183 92.1879 25.6383 93.2879 25.6383C94.3979 25.6383 95.3329 26.0183 96.0929 26.7783C96.8629 27.5383 97.2479 28.4733 97.2479 29.5833C97.2479 30.6933 96.8629 31.6283 96.0929 32.3883C95.3329 33.1483 94.3979 33.5283 93.2879 33.5283ZM91.6229 31.2783C92.0729 31.7283 92.6279 31.9533 93.2879 31.9533C93.9479 31.9533 94.5029 31.7283 94.9529 31.2783C95.4029 30.8283 95.6279 30.2633 95.6279 29.5833C95.6279 28.9033 95.4029 28.3383 94.9529 27.8883C94.5029 27.4383 93.9479 27.2133 93.2879 27.2133C92.6279 27.2133 92.0729 27.4383 91.6229 27.8883C91.1729 28.3383 90.9479 28.9033 90.9479 29.5833C90.9479 30.2633 91.1729 30.8283 91.6229 31.2783Z" fill="#0C2F75"/>
<path d="M100.333 27.0933C100.743 26.1633 101.513 25.6983 102.643 25.6983V27.4533C102.023 27.4133 101.483 27.5633 101.023 27.9033C100.563 28.2333 100.333 28.7833 100.333 29.5533V33.3333H98.7128V25.8333H100.333V27.0933Z" fill="#0C2F75"/>
<path d="M104.763 30.2733C104.883 30.8433 105.158 31.2833 105.588 31.5933C106.018 31.8933 106.543 32.0433 107.163 32.0433C108.023 32.0433 108.668 31.7333 109.098 31.1133L110.433 31.8933C109.693 32.9833 108.598 33.5283 107.148 33.5283C105.928 33.5283 104.943 33.1583 104.193 32.4183C103.443 31.6683 103.068 30.7233 103.068 29.5833C103.068 28.4633 103.438 27.5283 104.178 26.7783C104.918 26.0183 105.868 25.6383 107.028 25.6383C108.128 25.6383 109.028 26.0233 109.728 26.7933C110.438 27.5633 110.793 28.4983 110.793 29.5983C110.793 29.7683 110.773 29.9933 110.733 30.2733H104.763ZM104.748 28.9533H109.158C109.048 28.3433 108.793 27.8833 108.393 27.5733C108.003 27.2633 107.543 27.1083 107.013 27.1083C106.413 27.1083 105.913 27.2733 105.513 27.6033C105.113 27.9333 104.858 28.3833 104.748 28.9533Z" fill="#0C2F75"/>
<path d="M31.2998 25.1764C31.2898 23.4687 32.0635 22.1817 33.626 21.2327C32.7521 19.9808 31.43 19.2922 29.6873 19.1595C28.0372 19.0293 26.2319 20.121 25.5709 20.121C24.8723 20.121 23.2748 19.2046 22.0178 19.2046C19.4238 19.2446 16.667 21.2728 16.667 25.3992C16.667 26.6186 16.8898 27.8781 17.3355 29.1751C17.9315 30.8828 20.0798 35.0668 22.3208 34.9992C23.4926 34.9717 24.3214 34.1679 25.8463 34.1679C27.3261 34.1679 28.0923 34.9992 29.3994 34.9992C31.6604 34.9667 33.6034 31.1632 34.1693 29.4505C31.1371 28.0208 31.2998 25.264 31.2998 25.1764ZM28.6682 17.5395C29.9377 16.0321 29.8225 14.66 29.785 14.1667C28.6632 14.2318 27.3662 14.9304 26.6275 15.7892C25.8138 16.7107 25.3355 17.8499 25.4382 19.1344C26.6501 19.2271 27.7568 18.6036 28.6682 17.5395Z" fill="#0C2F75"/>
</svg>
