<svg width="180" height="60" viewBox="0 0 180 60" fill="none" xmlns="http://www.w3.org/2000/svg">
<rect x="0.25" y="0.25" width="179.5" height="59.5" fill="#0C2F75" stroke="white" stroke-width="0.5"/>
<path d="M33.8291 33.1544C36.0347 31.9434 37.7067 31.0205 37.8508 30.9488C38.3118 30.7036 38.7879 30.0547 37.8508 29.5507C37.5482 29.3922 35.9192 28.4981 33.8291 27.3451L30.9316 30.2713L33.8291 33.1543V33.1544Z" fill="#FFD900"/>
<path d="M30.9319 30.2709L21.7061 39.5691C21.9226 39.5978 22.1671 39.5404 22.4553 39.3819C23.0605 39.0507 29.4756 35.5473 33.8293 33.1547L30.9319 30.2709Z" fill="#F43249"/>
<path d="M30.9325 30.2711L33.83 27.3593C33.83 27.3593 23.1049 21.5062 22.456 21.1607C22.2115 21.0159 21.9375 20.9729 21.6924 21.0159L30.9325 30.2711Z" fill="#00EE76"/>
<path d="M30.9321 30.2746L21.6919 21.0194C21.3169 21.1061 21 21.4374 21 22.115V38.4773C21 39.0974 21.2452 39.5441 21.7063 39.5872L30.9321 30.2746Z" fill="#00D3FF"/>
<path d="M56.992 20.336V20.624C56.992 21.3173 56.744 21.904 56.248 22.384C55.752 22.8587 55.088 23.096 54.256 23.096C53.408 23.096 52.7067 22.816 52.152 22.256C51.5973 21.696 51.32 21.0107 51.32 20.2C51.32 19.3893 51.5973 18.704 52.152 18.144C52.7067 17.584 53.408 17.304 54.256 17.304C54.7733 17.304 55.248 17.4293 55.68 17.68C56.112 17.9307 56.4453 18.264 56.68 18.68L56.184 18.968C56.008 18.6267 55.7467 18.3547 55.4 18.152C55.0533 17.9493 54.672 17.848 54.256 17.848C53.5573 17.848 52.9867 18.0747 52.544 18.528C52.1013 18.9813 51.88 19.5387 51.88 20.2C51.88 20.8613 52.1013 21.4187 52.544 21.872C52.9867 22.3253 53.5573 22.552 54.256 22.552C54.8853 22.552 55.3893 22.3947 55.768 22.08C56.1467 21.76 56.3627 21.3547 56.416 20.864H54.192V20.336H56.992ZM59.7205 18.904C60.3125 18.904 60.7898 19.1147 61.1525 19.536C61.5205 19.952 61.7045 20.4453 61.7045 21.016C61.7045 21.0747 61.6992 21.1573 61.6885 21.264H58.1765C58.2298 21.6693 58.4005 21.992 58.6885 22.232C58.9818 22.4667 59.3418 22.584 59.7685 22.584C60.0725 22.584 60.3338 22.5227 60.5525 22.4C60.7765 22.272 60.9445 22.1067 61.0565 21.904L61.5205 22.176C61.3445 22.4587 61.1045 22.6827 60.8005 22.848C60.4965 23.0133 60.1498 23.096 59.7605 23.096C59.1312 23.096 58.6192 22.8987 58.2245 22.504C57.8298 22.1093 57.6325 21.608 57.6325 21C57.6325 20.4027 57.8272 19.904 58.2165 19.504C58.6058 19.104 59.1072 18.904 59.7205 18.904ZM59.7205 19.416C59.3045 19.416 58.9552 19.5413 58.6725 19.792C58.3952 20.0373 58.2298 20.3573 58.1765 20.752H61.1605C61.1072 20.3307 60.9445 20.0027 60.6725 19.768C60.4005 19.5333 60.0832 19.416 59.7205 19.416ZM64.5472 19.512H63.3952V21.936C63.3952 22.1547 63.4379 22.312 63.5232 22.408C63.6085 22.4987 63.7365 22.5467 63.9072 22.552C64.0779 22.552 64.2912 22.5467 64.5472 22.536V23C63.9872 23.0853 63.5659 23.0453 63.2832 22.88C63.0059 22.7147 62.8672 22.4 62.8672 21.936V19.512H62.0272V19H62.8672V18.04L63.3952 17.88V19H64.5472V19.512ZM67.9632 18.04C67.8885 18.1147 67.7979 18.152 67.6912 18.152C67.5845 18.152 67.4939 18.1147 67.4192 18.04C67.3445 17.9653 67.3072 17.8747 67.3072 17.768C67.3072 17.6613 67.3445 17.5707 67.4192 17.496C67.4939 17.4213 67.5845 17.384 67.6912 17.384C67.7979 17.384 67.8885 17.4213 67.9632 17.496C68.0379 17.5707 68.0752 17.6613 68.0752 17.768C68.0752 17.8747 68.0379 17.9653 67.9632 18.04ZM67.4272 23V19H67.9552V23H67.4272ZM71.1956 19.512H70.0436V21.936C70.0436 22.1547 70.0863 22.312 70.1716 22.408C70.257 22.4987 70.385 22.5467 70.5556 22.552C70.7263 22.552 70.9396 22.5467 71.1956 22.536V23C70.6356 23.0853 70.2143 23.0453 69.9316 22.88C69.6543 22.7147 69.5156 22.4 69.5156 21.936V19.512H68.6756V19H69.5156V18.04L70.0436 17.88V19H71.1956V19.512ZM77.4276 22.496C77.0223 22.896 76.5263 23.096 75.9396 23.096C75.353 23.096 74.8543 22.896 74.4436 22.496C74.0383 22.0907 73.8356 21.592 73.8356 21C73.8356 20.408 74.0383 19.912 74.4436 19.512C74.8543 19.1067 75.353 18.904 75.9396 18.904C76.5263 18.904 77.0223 19.1067 77.4276 19.512C77.8383 19.912 78.0436 20.408 78.0436 21C78.0436 21.592 77.8383 22.0907 77.4276 22.496ZM74.8196 22.128C75.1236 22.432 75.497 22.584 75.9396 22.584C76.3823 22.584 76.7556 22.432 77.0596 22.128C77.3636 21.8187 77.5156 21.4427 77.5156 21C77.5156 20.5573 77.3636 20.184 77.0596 19.88C76.7556 19.5707 76.3823 19.416 75.9396 19.416C75.497 19.416 75.1236 19.5707 74.8196 19.88C74.5156 20.184 74.3636 20.5573 74.3636 21C74.3636 21.4427 74.5156 21.8187 74.8196 22.128ZM80.7992 18.904C81.2845 18.904 81.6659 19.0533 81.9432 19.352C82.2259 19.6453 82.3672 20.0427 82.3672 20.544V23H81.8392V20.544C81.8392 20.1867 81.7432 19.9093 81.5512 19.712C81.3645 19.5147 81.0979 19.416 80.7512 19.416C80.3672 19.416 80.0552 19.5387 79.8152 19.784C79.5752 20.024 79.4552 20.3973 79.4552 20.904V23H78.9272V19H79.4552V19.624C79.7539 19.144 80.2019 18.904 80.7992 18.904Z" fill="white"/>
<path d="M55.912 39.36C54.736 39.36 53.68 39.072 52.744 38.496C51.82 37.92 51.094 37.14 50.566 36.156C50.05 35.16 49.792 34.068 49.792 32.88C49.792 31.74 50.02 30.708 50.476 29.784C50.932 28.848 51.58 28.11 52.42 27.57C53.272 27.03 54.256 26.76 55.372 26.76C56.404 26.76 57.292 26.898 58.036 27.174C58.792 27.438 59.344 27.78 59.692 28.2C59.884 28.44 60.004 28.758 60.052 29.154C60.112 29.55 60.142 30.042 60.142 30.63H59.782C59.554 29.574 59.122 28.788 58.486 28.272C57.85 27.744 56.992 27.48 55.912 27.48C54.94 27.48 54.13 27.738 53.482 28.254C52.834 28.758 52.354 29.418 52.042 30.234C51.742 31.05 51.592 31.932 51.592 32.88C51.592 34.908 51.988 36.378 52.78 37.29C53.572 38.19 54.616 38.64 55.912 38.64C56.524 38.64 57.046 38.586 57.478 38.478C57.91 38.37 58.318 38.214 58.702 38.01V34.878C58.702 34.47 58.768 34.116 58.9 33.816C59.032 33.516 59.314 33.27 59.746 33.078C60.19 32.874 60.832 32.772 61.672 32.772V33.132C61.132 33.132 60.772 33.27 60.592 33.546C60.412 33.822 60.322 34.254 60.322 34.842V38.226C59.674 38.622 58.996 38.91 58.288 39.09C57.58 39.27 56.788 39.36 55.912 39.36ZM66.7251 39.18C65.9091 39.18 65.2011 38.988 64.6011 38.604C64.0011 38.208 63.5451 37.674 63.2331 37.002C62.9211 36.33 62.7651 35.586 62.7651 34.77C62.7651 33.954 62.9211 33.21 63.2331 32.538C63.5451 31.866 64.0011 31.338 64.6011 30.954C65.2011 30.558 65.9091 30.36 66.7251 30.36C67.5411 30.36 68.2491 30.558 68.8491 30.954C69.4491 31.338 69.9051 31.866 70.2171 32.538C70.5291 33.21 70.6851 33.954 70.6851 34.77C70.6851 35.586 70.5291 36.33 70.2171 37.002C69.9051 37.674 69.4491 38.208 68.8491 38.604C68.2491 38.988 67.5411 39.18 66.7251 39.18ZM66.7251 38.46C67.1691 38.46 67.5591 38.298 67.8951 37.974C68.2431 37.65 68.5071 37.206 68.6871 36.642C68.8791 36.078 68.9751 35.454 68.9751 34.77C68.9751 34.086 68.8791 33.462 68.6871 32.898C68.5071 32.334 68.2431 31.89 67.8951 31.566C67.5591 31.242 67.1691 31.08 66.7251 31.08C66.2811 31.08 65.8851 31.242 65.5371 31.566C65.2011 31.89 64.9371 32.334 64.7451 32.898C64.5651 33.462 64.4751 34.086 64.4751 34.77C64.4751 35.454 64.5651 36.078 64.7451 36.642C64.9371 37.206 65.2011 37.65 65.5371 37.974C65.8851 38.298 66.2811 38.46 66.7251 38.46ZM76.27 39.18C75.454 39.18 74.746 38.988 74.146 38.604C73.546 38.208 73.09 37.674 72.778 37.002C72.466 36.33 72.31 35.586 72.31 34.77C72.31 33.954 72.466 33.21 72.778 32.538C73.09 31.866 73.546 31.338 74.146 30.954C74.746 30.558 75.454 30.36 76.27 30.36C77.086 30.36 77.794 30.558 78.394 30.954C78.994 31.338 79.45 31.866 79.762 32.538C80.074 33.21 80.23 33.954 80.23 34.77C80.23 35.586 80.074 36.33 79.762 37.002C79.45 37.674 78.994 38.208 78.394 38.604C77.794 38.988 77.086 39.18 76.27 39.18ZM76.27 38.46C76.714 38.46 77.104 38.298 77.44 37.974C77.788 37.65 78.052 37.206 78.232 36.642C78.424 36.078 78.52 35.454 78.52 34.77C78.52 34.086 78.424 33.462 78.232 32.898C78.052 32.334 77.788 31.89 77.44 31.566C77.104 31.242 76.714 31.08 76.27 31.08C75.826 31.08 75.43 31.242 75.082 31.566C74.746 31.89 74.482 32.334 74.29 32.898C74.11 33.462 74.02 34.086 74.02 34.77C74.02 35.454 74.11 36.078 74.29 36.642C74.482 37.206 74.746 37.65 75.082 37.974C75.43 38.298 75.826 38.46 76.27 38.46ZM85.4729 42.6C84.2609 42.6 83.2949 42.378 82.5749 41.934C81.8669 41.49 81.5129 40.782 81.5129 39.81C81.5129 39.258 81.6989 38.778 82.0709 38.37C82.4429 37.962 82.9169 37.662 83.4929 37.47C83.0129 37.206 82.7729 36.846 82.7729 36.39C82.7729 36.15 82.8269 35.964 82.9349 35.832C83.0429 35.7 83.1989 35.556 83.4029 35.4C83.0189 35.208 82.6949 34.908 82.4309 34.5C82.1789 34.092 82.0529 33.612 82.0529 33.06C82.0529 31.26 83.1929 30.36 85.4729 30.36H88.8029V30.81L87.6329 30.99V31.08C88.0049 31.272 88.3049 31.542 88.5329 31.89C88.7729 32.226 88.8929 32.616 88.8929 33.06C88.8929 34.86 87.7529 35.76 85.4729 35.76C84.2129 35.76 83.5829 35.97 83.5829 36.39C83.5829 36.81 84.2129 37.02 85.4729 37.02C86.6369 37.02 87.5849 37.254 88.3169 37.722C89.0609 38.178 89.4329 38.874 89.4329 39.81C89.4329 40.782 89.0729 41.49 88.3529 41.934C87.6449 42.378 86.6849 42.6 85.4729 42.6ZM85.4729 35.13C86.0129 35.13 86.4449 34.968 86.7689 34.644C87.1049 34.308 87.2729 33.78 87.2729 33.06C87.2729 32.376 87.1049 31.86 86.7689 31.512C86.4449 31.164 86.0129 30.99 85.4729 30.99C84.9329 30.99 84.4949 31.158 84.1589 31.494C83.8349 31.818 83.6729 32.34 83.6729 33.06C83.6729 33.78 83.8349 34.308 84.1589 34.644C84.4949 34.968 84.9329 35.13 85.4729 35.13ZM85.4729 41.88C86.1929 41.88 86.7629 41.706 87.1829 41.358C87.6029 41.022 87.8129 40.506 87.8129 39.81C87.8129 38.61 87.0929 37.92 85.6529 37.74L84.6629 37.65C84.1709 37.842 83.7929 38.112 83.5289 38.46C83.2649 38.808 83.1329 39.258 83.1329 39.81C83.1329 40.506 83.3429 41.022 83.7629 41.358C84.1829 41.706 84.7529 41.88 85.4729 41.88ZM91.2723 29.28C91.2723 28.668 91.1883 28.218 91.0203 27.93C90.8523 27.63 90.5163 27.48 90.0123 27.48H89.6523V27.12H91.2723C91.7163 27.12 92.0463 27.18 92.2623 27.3C92.4903 27.408 92.6523 27.612 92.7483 27.912C92.8443 28.212 92.8923 28.668 92.8923 29.28V39H91.2723V29.28ZM98.8537 39.18C98.0377 39.18 97.3477 38.988 96.7837 38.604C96.2197 38.208 95.7937 37.68 95.5057 37.02C95.2177 36.348 95.0737 35.598 95.0737 34.77C95.0737 33.954 95.2177 33.21 95.5057 32.538C95.7937 31.866 96.2077 31.338 96.7477 30.954C97.2997 30.558 97.9417 30.36 98.6737 30.36C99.8857 30.36 100.786 30.702 101.374 31.386C101.974 32.058 102.274 33.036 102.274 34.32L102.238 35.04H96.7837C96.7837 36.048 96.9997 36.87 97.4317 37.506C97.8637 38.142 98.4577 38.46 99.2137 38.46C99.7777 38.46 100.252 38.34 100.636 38.1C101.032 37.86 101.398 37.5 101.734 37.02L102.094 37.29C101.698 37.95 101.236 38.43 100.708 38.73C100.18 39.03 99.5617 39.18 98.8537 39.18ZM100.564 34.32C100.564 33.264 100.408 32.46 100.096 31.908C99.7837 31.356 99.3097 31.08 98.6737 31.08C98.3137 31.08 97.9897 31.224 97.7017 31.512C97.4137 31.788 97.1857 32.172 97.0177 32.664C96.8617 33.156 96.7837 33.708 96.7837 34.32H100.564ZM109.461 29.28C109.461 28.668 109.377 28.218 109.209 27.93C109.041 27.63 108.705 27.48 108.201 27.48H107.841V27.12H112.521C113.673 27.12 114.711 27.366 115.635 27.858C116.559 28.35 117.021 29.304 117.021 30.72C117.021 31.656 116.781 32.376 116.301 32.88C115.821 33.384 115.281 33.72 114.681 33.888C114.093 34.056 113.553 34.14 113.061 34.14H111.081V39H109.461V29.28ZM112.431 33.51C112.815 33.51 113.223 33.414 113.655 33.222C114.087 33.018 114.453 32.7 114.753 32.268C115.065 31.836 115.221 31.29 115.221 30.63C115.221 29.97 115.065 29.424 114.753 28.992C114.453 28.56 114.087 28.248 113.655 28.056C113.223 27.852 112.815 27.75 112.431 27.75C112.011 27.75 111.561 27.81 111.081 27.93V33.33C111.561 33.45 112.011 33.51 112.431 33.51ZM118.852 29.28C118.852 28.668 118.768 28.218 118.6 27.93C118.432 27.63 118.096 27.48 117.592 27.48H117.232V27.12H118.852C119.296 27.12 119.626 27.18 119.842 27.3C120.07 27.408 120.232 27.612 120.328 27.912C120.424 28.212 120.472 28.668 120.472 29.28V39H118.852V29.28ZM125.156 39.18C124.772 39.18 124.382 39.102 123.986 38.946C123.59 38.778 123.248 38.508 122.96 38.136C122.684 37.764 122.546 37.272 122.546 36.66C122.546 35.748 122.966 35.1 123.806 34.716C124.658 34.332 125.768 34.14 127.136 34.14H127.676C127.676 32.964 127.514 32.16 127.19 31.728C126.866 31.296 126.398 31.08 125.786 31.08C125.246 31.08 124.814 31.194 124.49 31.422C124.166 31.65 123.938 32.046 123.806 32.61H122.996C122.996 32.202 123.02 31.884 123.068 31.656C123.116 31.416 123.242 31.194 123.446 30.99C123.662 30.774 124.016 30.618 124.508 30.522C125.012 30.414 125.558 30.36 126.146 30.36C127.118 30.36 127.886 30.624 128.45 31.152C129.014 31.668 129.296 32.664 129.296 34.14V39H128.396L127.766 38.19H127.676C127.46 38.466 127.142 38.7 126.722 38.892C126.302 39.084 125.78 39.18 125.156 39.18ZM125.966 38.37C126.362 38.37 126.692 38.274 126.956 38.082C127.22 37.89 127.46 37.626 127.676 37.29V34.86H127.136C126.248 34.86 125.546 35.028 125.03 35.364C124.514 35.688 124.256 36.12 124.256 36.66C124.256 37.212 124.418 37.638 124.742 37.938C125.078 38.226 125.486 38.37 125.966 38.37ZM132.224 42.06C132.812 42.06 133.292 41.922 133.664 41.646C134.048 41.382 134.378 40.89 134.654 40.17L135.014 39.18L132.134 32.16C131.798 31.296 131.138 30.816 130.154 30.72V30.36H131.684C132.728 30.36 133.448 30.84 133.844 31.8L135.896 36.786L138.164 30.54H139.064L135.554 40.17C135.206 41.118 134.822 41.76 134.402 42.096C133.982 42.432 133.436 42.6 132.764 42.6H132.224V42.06Z" fill="white"/>
</svg>
