<svg width="20" height="20" viewBox="0 0 20 20" fill="none" xmlns="http://www.w3.org/2000/svg">
<path fill-rule="evenodd" clip-rule="evenodd" d="M5.85738 0.06C6.92014 0.0109091 7.25899 0 9.96616 0C12.6733 0 13.0122 0.0118182 14.074 0.06C15.1359 0.108182 15.8607 0.278182 16.4949 0.524545C17.159 0.776364 17.7615 1.17 18.2598 1.67909C18.7672 2.17818 19.1586 2.78182 19.4086 3.44909C19.6551 4.08545 19.8236 4.81273 19.8725 5.87636C19.9214 6.94455 19.9323 7.28455 19.9323 10C19.9323 12.7164 19.9205 13.0564 19.8725 14.1227C19.8245 15.1864 19.6551 15.9136 19.4086 16.55C19.1586 17.2174 18.7665 17.822 18.2598 18.3218C17.7615 18.8309 17.159 19.2236 16.4949 19.4745C15.8607 19.7218 15.1359 19.8909 14.0758 19.94C13.0122 19.9891 12.6733 20 9.96616 20C7.25899 20 6.92014 19.9882 5.85738 19.94C4.79735 19.8918 4.07253 19.7218 3.43832 19.4745C2.77324 19.2236 2.17065 18.8302 1.6725 18.3218C1.16548 17.8224 0.773115 17.2181 0.52277 16.5509C0.27724 15.9145 0.108722 15.1873 0.0597969 14.1236C0.0108722 13.0555 0 12.7155 0 10C0 7.28364 0.0117782 6.94364 0.0597969 5.87818C0.107816 4.81273 0.27724 4.08545 0.52277 3.44909C0.773485 2.78189 1.16615 2.17756 1.67341 1.67818C2.17085 1.16955 2.77283 0.775858 3.43742 0.524545C4.07163 0.278182 4.79644 0.109091 5.85648 0.06H5.85738ZM13.9934 1.86C12.9424 1.81182 12.6271 1.80182 9.96616 1.80182C7.30519 1.80182 6.9899 1.81182 5.93892 1.86C4.96677 1.90455 4.43947 2.06727 4.08794 2.20455C3.62315 2.38636 3.29064 2.60182 2.94183 2.95182C2.61117 3.27459 2.35671 3.66753 2.19708 4.10182C2.06028 4.45455 1.8981 4.98364 1.85371 5.95909C1.80569 7.01364 1.79572 7.33 1.79572 10C1.79572 12.67 1.80569 12.9864 1.85371 14.0409C1.8981 15.0164 2.06028 15.5455 2.19708 15.8982C2.35654 16.3318 2.61113 16.7255 2.94183 17.0482C3.26346 17.38 3.65577 17.6355 4.08794 17.7955C4.43947 17.9327 4.96677 18.0955 5.93892 18.14C6.9899 18.1882 7.30429 18.1982 9.96616 18.1982C12.628 18.1982 12.9424 18.1882 13.9934 18.14C14.9655 18.0955 15.4928 17.9327 15.8444 17.7955C16.3092 17.6136 16.6417 17.3982 16.9905 17.0482C17.3212 16.7255 17.5758 16.3318 17.7352 15.8982C17.872 15.5455 18.0342 15.0164 18.0786 14.0409C18.1266 12.9864 18.1366 12.67 18.1366 10C18.1366 7.33 18.1266 7.01364 18.0786 5.95909C18.0342 4.98364 17.872 4.45455 17.7352 4.10182C17.554 3.63545 17.3393 3.30182 16.9905 2.95182C16.6688 2.62006 16.2772 2.36474 15.8444 2.20455C15.4928 2.06727 14.9655 1.90455 13.9934 1.86ZM8.69321 13.0827C9.40412 13.3797 10.1957 13.4197 10.9328 13.1961C11.6699 12.9725 12.3067 12.499 12.7346 11.8566C13.1624 11.2142 13.3547 10.4426 13.2786 9.67373C13.2025 8.90485 12.8627 8.18634 12.3173 7.64091C11.9696 7.29225 11.5492 7.02528 11.0863 6.85922C10.6234 6.69317 10.1296 6.63215 9.64044 6.68056C9.15125 6.72897 8.67885 6.88562 8.25724 7.13921C7.83562 7.3928 7.47529 7.73704 7.20218 8.14714C6.92907 8.55723 6.74998 9.02299 6.67779 9.51087C6.60561 9.99876 6.64213 10.4966 6.78472 10.9687C6.92732 11.4407 7.17244 11.8751 7.50245 12.2407C7.83246 12.6062 8.23913 12.8938 8.69321 13.0827ZM6.34391 6.36545C6.81959 5.88816 7.38431 5.50955 8.00581 5.25124C8.62732 4.99293 9.29344 4.85998 9.96616 4.85998C10.6389 4.85998 11.305 4.99293 11.9265 5.25124C12.548 5.50955 13.1127 5.88816 13.5884 6.36545C14.0641 6.84275 14.4414 7.40938 14.6988 8.033C14.9563 8.65662 15.0888 9.325 15.0888 10C15.0888 10.675 14.9563 11.3434 14.6988 11.967C14.4414 12.5906 14.0641 13.1573 13.5884 13.6345C12.6277 14.5985 11.3248 15.14 9.96616 15.14C8.60755 15.14 7.30459 14.5985 6.34391 13.6345C5.38323 12.6706 4.84353 11.3632 4.84353 10C4.84353 8.63678 5.38323 7.3294 6.34391 6.36545ZM16.2249 5.62545C16.3428 5.51388 16.4371 5.37971 16.5024 5.23089C16.5677 5.08206 16.6025 4.92161 16.6049 4.75903C16.6073 4.59645 16.5771 4.43504 16.5162 4.28437C16.4553 4.1337 16.3648 3.99683 16.2502 3.88185C16.1357 3.76688 15.9992 3.67614 15.8491 3.61502C15.6989 3.55389 15.5381 3.52361 15.376 3.52598C15.214 3.52835 15.0541 3.56332 14.9058 3.62881C14.7575 3.69431 14.6237 3.789 14.5125 3.90727C14.2963 4.1373 14.1779 4.44284 14.1825 4.75903C14.1871 5.07522 14.3143 5.37716 14.5371 5.60077C14.76 5.82437 15.0609 5.95203 15.376 5.95664C15.6912 5.96125 15.9957 5.84245 16.2249 5.62545Z" fill="#17206A"/>
</svg>
