<svg width="133" height="29" viewBox="0 0 133 29" fill="none" xmlns="http://www.w3.org/2000/svg">
<path d="M58.64 29C66.648 29 73.14 22.508 73.14 14.5C73.14 6.492 66.648 0 58.64 0C50.632 0 44.14 6.492 44.14 14.5C44.14 22.508 50.632 29 58.64 29ZM39.64 21C40.0378 21 40.4194 20.842 40.7007 20.5607C40.982 20.2794 41.14 19.8978 41.14 19.5C41.14 19.1022 40.982 18.7206 40.7007 18.4393C40.4194 18.158 40.0378 18 39.64 18C39.2422 18 38.8606 18.158 38.5793 18.4393C38.298 18.7206 38.14 19.1022 38.14 19.5C38.14 19.8978 38.298 20.2794 38.5793 20.5607C38.8606 20.842 39.2422 21 39.64 21V21ZM32.963 8.323H36.391V21.098H33.23L28.008 14.092L28.05 20.998H24.613V8.24H27.784L32.964 15.653L32.963 8.323ZM17.498 21.313C14.195 21.313 11.92 19.147 11.92 16.018V8.323H15.357V16.026C15.357 17.313 16.245 18.201 17.498 18.201C18.76 18.201 19.648 17.313 19.648 16.034V8.323H23.085V16.018C23.085 19.148 20.81 21.314 17.498 21.314V21.313ZM6.616 14.533L11.588 20.999H7.27L3.57 15.835H3.438V20.998H0V8.323H3.437V13.603H3.527L7.022 8.323H10.99L6.616 14.533Z" fill="#0C2F75"/>
<path d="M70.349 20.9948V17.9318H65.459L70.722 8.31982H60.795V11.3748H65.086L59.798 20.9948H70.349ZM59.035 16.0148V8.31982H55.598V16.0308C55.598 17.3098 54.71 18.1978 53.448 18.1978C52.195 18.1978 51.307 17.3098 51.307 16.0228V8.31982H47.87V16.0148C47.87 19.1448 50.144 21.3108 53.448 21.3108C56.76 21.3108 59.035 19.1438 59.035 16.0148V16.0148Z" fill="white"/>
<path d="M87.26 14.904C87.8013 15.0813 88.2307 15.38 88.548 15.8C88.8653 16.2107 89.024 16.724 89.024 17.34C89.024 18.1893 88.6973 18.8473 88.044 19.314C87.3907 19.7713 86.4387 20 85.188 20H80.316V10.2H84.908C86.0653 10.2 86.9567 10.4287 87.582 10.886C88.2073 11.334 88.52 11.9547 88.52 12.748C88.52 13.2333 88.408 13.6627 88.184 14.036C87.96 14.4093 87.652 14.6987 87.26 14.904ZM82.136 11.628V14.33H84.712C85.3467 14.33 85.832 14.218 86.168 13.994C86.5133 13.7607 86.686 13.4247 86.686 12.986C86.686 12.538 86.5133 12.202 86.168 11.978C85.832 11.7447 85.3467 11.628 84.712 11.628H82.136ZM85.076 18.572C86.4853 18.572 87.19 18.1007 87.19 17.158C87.19 16.2153 86.4853 15.744 85.076 15.744H82.136V18.572H85.076ZM90.9664 10.2H92.7864V20H90.9664V10.2ZM103.053 18.46V20H94.6951V18.782L100.463 11.74H94.7931V10.2H102.871V11.418L97.1031 18.46H103.053ZM113.428 10.2V20H111.93L106.526 13.364V20H104.72V10.2H106.218L111.622 16.836V10.2H113.428ZM123.404 18.474V20H116.054V10.2H123.208V11.726H117.874V14.274H122.606V15.772H117.874V18.474H123.404ZM128.471 20.14C127.715 20.14 126.983 20.0327 126.273 19.818C125.573 19.6033 125.018 19.3187 124.607 18.964L125.237 17.55C125.639 17.8673 126.129 18.1287 126.707 18.334C127.295 18.53 127.883 18.628 128.471 18.628C129.199 18.628 129.741 18.5113 130.095 18.278C130.459 18.0447 130.641 17.7367 130.641 17.354C130.641 17.074 130.539 16.8453 130.333 16.668C130.137 16.4813 129.885 16.3367 129.577 16.234C129.269 16.1313 128.849 16.0147 128.317 15.884C127.571 15.7067 126.964 15.5293 126.497 15.352C126.04 15.1747 125.643 14.8993 125.307 14.526C124.981 14.1433 124.817 13.63 124.817 12.986C124.817 12.4447 124.962 11.9547 125.251 11.516C125.55 11.068 125.993 10.7133 126.581 10.452C127.179 10.1907 127.907 10.06 128.765 10.06C129.363 10.06 129.951 10.1347 130.529 10.284C131.108 10.4333 131.607 10.648 132.027 10.928L131.453 12.342C131.024 12.09 130.576 11.8987 130.109 11.768C129.643 11.6373 129.19 11.572 128.751 11.572C128.033 11.572 127.496 11.6933 127.141 11.936C126.796 12.1787 126.623 12.5007 126.623 12.902C126.623 13.182 126.721 13.4107 126.917 13.588C127.123 13.7653 127.379 13.9053 127.687 14.008C127.995 14.1107 128.415 14.2273 128.947 14.358C129.675 14.526 130.273 14.7033 130.739 14.89C131.206 15.0673 131.603 15.3427 131.929 15.716C132.265 16.0893 132.433 16.5933 132.433 17.228C132.433 17.7693 132.284 18.2593 131.985 18.698C131.696 19.1367 131.253 19.4867 130.655 19.748C130.058 20.0093 129.33 20.14 128.471 20.14Z" fill="black"/>
</svg>
