<svg width="15" height="14" viewBox="0 0 15 14" fill="none" xmlns="http://www.w3.org/2000/svg">
<path opacity="0.7" fill-rule="evenodd" clip-rule="evenodd" d="M4.52025 0.437543C5.48712 0.437543 6.27025 1.22504 6.27025 2.18754V4.52029C6.27025 5.48717 5.4845 6.27029 4.52025 6.27029H2.1875C1.2215 6.27029 0.4375 5.48454 0.4375 4.52029V2.18754C0.4375 1.22154 1.225 0.437543 2.1875 0.437543H4.52025ZM4.8125 1.89617H1.89613V4.81254H4.8125V1.89617ZM0.4375 9.47979C0.4375 8.51292 1.225 7.72979 2.1875 7.72979H4.52025C5.48712 7.72979 6.27025 8.51554 6.27025 9.47979V11.8125C6.27025 12.7785 5.4845 13.5625 4.52025 13.5625H2.1875C1.2215 13.5625 0.4375 12.775 0.4375 11.8125V9.47979ZM1.89613 9.18754V12.1039H4.8125V9.18754H1.89613ZM12.1179 1.15504V11.0758L12.9334 10.2603C13.0702 10.1236 13.2557 10.0469 13.4491 10.0469C13.5448 10.047 13.6396 10.0659 13.7281 10.1026C13.8165 10.1392 13.8969 10.193 13.9646 10.2607C14.0322 10.3285 14.0859 10.4089 14.1225 10.4974C14.1591 10.5858 14.1779 10.6807 14.1779 10.7764C14.1779 10.8722 14.159 10.967 14.1223 11.0554C14.0856 11.1439 14.0319 11.2242 13.9641 11.2919L11.9061 13.3499C11.8384 13.4181 11.7578 13.4721 11.669 13.5089C11.5803 13.5457 11.4851 13.5645 11.389 13.5643C11.2931 13.565 11.1981 13.5466 11.1094 13.51C11.0208 13.4735 10.9403 13.4197 10.8727 13.3517L8.813 11.2919C8.74526 11.2242 8.69152 11.1439 8.65484 11.0554C8.61816 10.967 8.59926 10.8722 8.59922 10.7764C8.59917 10.6807 8.61799 10.5858 8.6546 10.4974C8.69121 10.4089 8.74488 10.3285 8.81256 10.2607C8.94925 10.1239 9.13468 10.047 9.32807 10.0469C9.42382 10.0469 9.51865 10.0657 9.60713 10.1023C9.69561 10.1389 9.77601 10.1926 9.84375 10.2603L10.6593 11.0758V1.15504C10.6593 0.752543 10.983 0.425293 11.3881 0.425293C11.7906 0.425293 12.1179 0.749043 12.1179 1.15504Z" fill="white"/>
</svg>
