<svg width="6" height="12" viewBox="0 0 6 12" fill="none" xmlns="http://www.w3.org/2000/svg">
<path d="M0.07935 11.5159L5.36158 6.00019L5.32466 5.96168L0.0768323 0.482718C0.0271249 0.428167 -0.000241756 0.35556 0.000541687 0.280308C0.00132513 0.205057 0.0301971 0.133086 0.0810285 0.0796731C0.132452 0.0276406 0.20156 -0.00100153 0.273201 2.6761e-05C0.309258 -0.000464079 0.345054 0.00647349 0.378535 0.0204414C0.412016 0.0344092 0.442524 0.0551328 0.46831 0.0814237L5.92467 5.7792C5.95092 5.80739 5.97109 5.8411 5.98383 5.87808C5.99657 5.91507 6.00158 5.95446 5.99852 5.99363C6.00267 6.03521 5.99806 6.07724 5.98502 6.11677C5.97197 6.15631 5.9508 6.19239 5.92299 6.2225L0.462436 11.9251C0.360056 12.0257 0.185925 12.0271 0.0759926 11.9163C0.0266304 11.8622 -0.000615597 11.7901 1.09673e-05 11.7154C0.000637054 11.6407 0.0290875 11.5692 0.07935 11.5159Z" fill="#0C2F75"/>
</svg>
