<svg width="82" height="82" viewBox="0 0 82 82" fill="none" xmlns="http://www.w3.org/2000/svg">
<path fill-rule="evenodd" clip-rule="evenodd" d="M41 0C18.392 0 0 18.392 0 41C0 63.608 18.392 82 41 82C63.608 82 82 63.608 82 41C82 18.392 63.608 0 41 0ZM41 80.251C19.352 80.251 1.749 62.648 1.749 41C1.749 19.352 19.352 1.749 41 1.749C62.648 1.749 80.251 19.352 80.251 41C80.251 62.648 62.648 80.251 41 80.251Z" fill="white"/>
<path fill-rule="evenodd" clip-rule="evenodd" d="M59.761 31.1798H53.753L50.934 24.1318H33.066L30.247 31.1798H29.315V27.6558H25.085V31.1798H24.239C23.3421 31.1809 22.4822 31.5377 21.848 32.1719C21.2138 32.8061 20.8571 33.6659 20.856 34.5628V55.2598C20.8568 56.163 21.2159 57.029 21.8544 57.6677C22.493 58.3065 23.3588 58.6658 24.262 58.6668H59.738C60.6412 58.6658 61.5071 58.3065 62.1456 57.6677C62.7842 57.029 63.1432 56.163 63.144 55.2598V34.5628C63.143 33.6659 62.7862 32.8061 62.152 32.1719C61.5178 31.5377 60.6579 31.1809 59.761 31.1798ZM26.492 31.1798H27.904V29.0668H26.492V31.1798ZM61.733 55.2598C61.733 56.3648 60.839 57.2598 59.738 57.2598H24.262C23.7325 57.2585 23.225 57.0472 22.851 56.6723C22.477 56.2974 22.267 55.7894 22.267 55.2598V34.5628C22.267 33.4748 23.151 32.5918 24.239 32.5918H31.2L34.019 25.5428H49.98L52.799 32.5918H59.76C60.848 32.5918 61.732 33.4748 61.732 34.5628V55.2598H61.733Z" fill="white"/>
<path fill-rule="evenodd" clip-rule="evenodd" d="M42 30.4741C35.004 30.4741 29.315 36.1671 29.315 43.1641C29.315 50.1561 35.004 55.8491 42 55.8491C48.996 55.8491 54.685 50.1561 54.685 43.1641C54.685 36.1671 48.996 30.4741 42 30.4741ZM42 54.4371C35.78 54.4371 30.722 49.3781 30.722 43.1641C30.722 36.9441 35.781 31.8861 42 31.8861C48.22 31.8861 53.278 36.9451 53.278 43.1641C53.278 49.3781 48.219 54.4371 42 54.4371Z" fill="white"/>
<path fill-rule="evenodd" clip-rule="evenodd" d="M42 34.7042C37.337 34.7042 33.54 38.4972 33.54 43.1642C33.54 47.8272 37.337 51.6192 42 51.6192C46.663 51.6192 50.46 47.8272 50.46 43.1642C50.46 38.4972 46.663 34.7042 42 34.7042ZM42 50.2122C38.115 50.2122 34.952 47.0492 34.952 43.1642C34.9538 41.2955 35.697 39.5039 37.0183 38.1825C38.3397 36.8612 40.1313 36.118 42 36.1162C43.8687 36.118 45.6603 36.8612 46.9816 38.1825C48.303 39.5039 49.0461 41.2955 49.048 43.1642C49.048 47.0492 45.885 50.2122 42 50.2122ZM57.773 34.2642C57.0956 34.2647 56.446 34.5337 55.9665 35.0122C55.4871 35.4907 55.2168 36.1398 55.215 36.8172C55.216 37.4952 55.4859 38.1451 55.9654 38.6244C56.4449 39.1037 57.095 39.3734 57.773 39.3742C58.4502 39.3723 59.0991 39.1022 59.5776 38.6229C60.0561 38.1437 60.3252 37.4944 60.326 36.8172C60.3241 36.1406 60.0546 35.4923 59.5762 35.014C59.0978 34.5356 58.4495 34.266 57.773 34.2642ZM57.773 38.0962C57.4337 38.0962 57.1082 37.9614 56.8682 37.7216C56.6282 37.4818 56.4932 37.1565 56.493 36.8172C56.493 36.1172 57.068 35.5422 57.773 35.5422C58.473 35.5422 59.047 36.1162 59.047 36.8172C59.0467 37.1554 58.9126 37.4798 58.6738 37.7195C58.4351 37.9592 58.1112 38.0946 57.773 38.0962Z" fill="white"/>
</svg>
