<svg width="173" height="54" viewBox="0 0 173 54" fill="none" xmlns="http://www.w3.org/2000/svg">
<path d="M146 0H27C12.0883 0 0 12.0883 0 27C0 41.9117 12.0883 54 27 54H146C160.912 54 173 41.9117 173 27C173 12.0883 160.912 0 146 0Z" fill="#212121"/>
<path d="M61.1099 21.2402L61.5669 19.9332H63.3769C63.5066 20.3032 63.6363 20.6732 63.7659 21.0432L63.8349 21.2402H64.4309L62.7529 16.6742H62.1919L60.5129 21.2402H61.1089H61.1099ZM63.2099 19.4502H61.7339L61.8069 19.2432L61.9849 18.7342L62.1959 18.1272C62.2789 17.8883 62.3626 17.6496 62.4469 17.4112H62.4969L63.2099 19.4492V19.4502ZM65.7929 21.2402V19.2212C65.7929 18.9212 65.8739 18.6872 66.0359 18.5162C66.1979 18.3452 66.4149 18.2592 66.6859 18.2592C66.9579 18.2592 67.1589 18.3332 67.2899 18.4812C67.4219 18.6292 67.4869 18.8562 67.4869 19.1642V21.2402H68.0299V19.0312C68.0299 18.6262 67.9279 18.3152 67.7229 18.0972C67.5169 17.8782 67.2229 17.7692 66.8409 17.7692C66.5799 17.7692 66.3659 17.8222 66.1989 17.9272C66.0315 18.033 65.8992 18.1861 65.8189 18.3672H65.7689V17.8292H65.2509V21.2402H65.7929ZM70.3699 21.3002C70.6059 21.3002 70.8199 21.2472 71.0099 21.1402C71.2019 21.0342 71.3509 20.8862 71.4589 20.6962H71.5089V21.2402H72.0259V16.4752H71.4839V18.3672H71.4359C71.3409 18.181 71.1921 18.0277 71.0089 17.9272C70.8133 17.8199 70.5931 17.7654 70.3699 17.7692C69.9399 17.7692 69.5929 17.9292 69.3319 18.2502C69.0719 18.5702 68.9419 18.9992 68.9419 19.5352C68.9419 20.0702 69.0709 20.4992 69.3289 20.8192C69.5879 21.1392 69.9349 21.3002 70.3699 21.3002ZM70.4959 20.8102C70.1859 20.8102 69.9419 20.6972 69.7659 20.4712C69.5909 20.2452 69.5029 19.9332 69.5029 19.5352C69.5029 19.1382 69.5909 18.8262 69.7679 18.6002C69.9439 18.3732 70.1879 18.2602 70.4959 18.2602C70.8029 18.2602 71.0459 18.3742 71.2259 18.6042C71.4059 18.8342 71.4959 19.1442 71.4959 19.5342C71.4959 19.9292 71.4069 20.2402 71.2279 20.4682C71.1421 20.5795 71.0309 20.6686 70.9035 20.7281C70.7762 20.7876 70.6364 20.8158 70.4959 20.8102ZM73.7139 21.2402V19.1262C73.7139 18.8862 73.7979 18.6882 73.9659 18.5322C74.1405 18.3734 74.3701 18.2891 74.6059 18.2972C74.7223 18.2985 74.8383 18.3092 74.9529 18.3292V17.7852C74.8631 17.774 74.7725 17.7686 74.6819 17.7692C74.4703 17.7658 74.2618 17.8205 74.0789 17.9272C73.9176 18.0146 73.7959 18.1607 73.7389 18.3352H73.6889V17.8292H73.1709V21.2402H73.7139ZM77.0249 21.3002C77.5089 21.3002 77.8909 21.1422 78.1719 20.8272C78.4519 20.5122 78.5929 20.0812 78.5929 19.5352C78.5929 18.9862 78.4529 18.5552 78.1719 18.2402C77.8919 17.9262 77.5089 17.7692 77.0249 17.7692C76.5419 17.7692 76.1589 17.9262 75.8789 18.2402C75.5979 18.5552 75.4569 18.9862 75.4569 19.5352C75.4569 20.0812 75.5969 20.5122 75.8789 20.8272C76.1589 21.1422 76.5419 21.3002 77.0249 21.3002ZM77.0249 20.8102C76.7039 20.8102 76.4549 20.6982 76.2809 20.4742C76.1059 20.2512 76.0189 19.9372 76.0189 19.5342C76.0189 19.1302 76.1059 18.8162 76.2809 18.5942C76.4549 18.3712 76.7039 18.2592 77.0249 18.2592C77.3469 18.2592 77.5949 18.3712 77.7699 18.5932C77.9439 18.8162 78.0319 19.1302 78.0319 19.5352C78.0319 19.9372 77.9439 20.2512 77.7699 20.4752C77.5949 20.6982 77.3469 20.8102 77.0249 20.8102ZM79.8229 17.1712C79.8729 17.172 79.9225 17.1625 79.9687 17.1432C80.0148 17.124 80.0564 17.0953 80.0909 17.0592C80.1265 17.0243 80.1545 16.9825 80.1734 16.9365C80.1923 16.8904 80.2017 16.841 80.2009 16.7912C80.2019 16.7412 80.1926 16.6916 80.1737 16.6453C80.1548 16.5991 80.1266 16.5572 80.0909 16.5222C80.0561 16.4865 80.0144 16.4584 79.9683 16.4394C79.9222 16.4205 79.8728 16.4112 79.8229 16.4122C79.7731 16.4112 79.7236 16.4205 79.6776 16.4394C79.6315 16.4584 79.5897 16.4865 79.5549 16.5222C79.5191 16.5573 79.4909 16.5993 79.472 16.6458C79.4531 16.6922 79.4439 16.742 79.4449 16.7922C79.4449 16.8952 79.4809 16.9842 79.5549 17.0592C79.5895 17.0953 79.6311 17.124 79.6772 17.1432C79.7233 17.1625 79.773 17.172 79.8229 17.1712ZM80.0909 21.2402V17.8302H79.5479V21.2402H80.0909ZM82.4749 21.3002C82.7109 21.3002 82.9249 21.2472 83.1149 21.1402C83.3069 21.0342 83.4559 20.8862 83.5639 20.6962H83.6139V21.2402H84.1309V16.4752H83.5889V18.3672H83.5419C83.4466 18.1809 83.2975 18.0276 83.1139 17.9272C82.9183 17.8199 82.698 17.7654 82.4749 17.7692C82.0449 17.7692 81.6979 17.9292 81.4369 18.2502C81.1769 18.5702 81.0469 18.9992 81.0469 19.5352C81.0469 20.0702 81.1759 20.4992 81.4339 20.8192C81.6929 21.1392 82.0399 21.3002 82.4749 21.3002ZM82.6009 20.8102C82.2909 20.8102 82.0469 20.6972 81.8709 20.4712C81.6959 20.2452 81.6079 19.9332 81.6079 19.5352C81.6079 19.1382 81.6959 18.8262 81.8729 18.6002C82.0489 18.3732 82.2929 18.2602 82.6009 18.2602C82.9089 18.2602 83.1509 18.3742 83.3309 18.6042C83.5109 18.8342 83.6009 19.1442 83.6009 19.5342C83.6009 19.9292 83.5119 20.2402 83.3329 20.4682C83.2471 20.5795 83.1359 20.6686 83.0085 20.7281C82.8812 20.7876 82.7414 20.8158 82.6009 20.8102ZM87.4929 21.2402L87.9509 19.9332H89.7609C89.8903 20.3032 90.0196 20.6732 90.1489 21.0432L90.2189 21.2402H90.8149L89.1369 16.6742H88.5749L86.8969 21.2402H87.4929ZM89.5939 19.4502H88.1179L88.1899 19.2432L88.3689 18.7342L88.5789 18.1272C88.6499 17.9242 88.7089 17.7542 88.7589 17.6172L88.8309 17.4112H88.8809L89.5939 19.4492V19.4502ZM92.1769 22.3802V20.7272H92.2269C92.3199 20.9072 92.4599 21.0472 92.6469 21.1482C92.8339 21.2492 93.0489 21.3002 93.2909 21.3002C93.7239 21.3002 94.0709 21.1402 94.3309 20.8182C94.5899 20.4962 94.7199 20.0682 94.7199 19.5352C94.7199 18.9992 94.5899 18.5712 94.3299 18.2502C94.0699 17.9302 93.7239 17.7692 93.2899 17.7692C93.0599 17.7692 92.8469 17.8252 92.6549 17.9372C92.4645 18.0468 92.3078 18.2066 92.2019 18.3992H92.1519V17.8292H91.6349V22.3792H92.1769V22.3802ZM93.1609 20.8102C93.0209 20.8148 92.8818 20.7859 92.7551 20.7259C92.6285 20.6659 92.5181 20.5765 92.4329 20.4652C92.2519 20.2352 92.1609 19.9252 92.1609 19.5352C92.1609 19.1422 92.2509 18.8322 92.4329 18.6032C92.5187 18.4919 92.6297 18.4026 92.7568 18.3428C92.884 18.283 93.0235 18.2543 93.1639 18.2592C93.4759 18.2592 93.7189 18.3722 93.8939 18.5982C94.0699 18.8242 94.1579 19.1362 94.1579 19.5352C94.1579 19.9332 94.0699 20.2452 93.8949 20.4712C93.7189 20.6972 93.4749 20.8102 93.1609 20.8102ZM96.2049 22.3802V20.7272H96.2549C96.3479 20.9072 96.4879 21.0472 96.6749 21.1482C96.8619 21.2492 97.0769 21.3002 97.3189 21.3002C97.7519 21.3002 98.0989 21.1402 98.3579 20.8182C98.6179 20.4962 98.7479 20.0682 98.7479 19.5352C98.7479 18.9992 98.6179 18.5712 98.3579 18.2502C98.0979 17.9302 97.7519 17.7692 97.3179 17.7692C97.0879 17.7692 96.8749 17.8252 96.6829 17.9372C96.4925 18.0468 96.3358 18.2066 96.2299 18.3992H96.1799V17.8292H95.6619V22.3792H96.2049V22.3802ZM97.1889 20.8102C97.0487 20.8149 96.9094 20.7861 96.7826 20.7261C96.6558 20.6661 96.5452 20.5766 96.4599 20.4652C96.2799 20.2352 96.1899 19.9252 96.1899 19.5352C96.1899 19.1422 96.2799 18.8322 96.4599 18.6032C96.5458 18.4917 96.657 18.4024 96.7843 18.3425C96.9116 18.2827 97.0514 18.2541 97.1919 18.2592C97.5039 18.2592 97.7469 18.3722 97.9219 18.5982C98.0979 18.8242 98.1859 19.1362 98.1859 19.5352C98.1859 19.9332 98.0979 20.2452 97.9229 20.4712C97.7469 20.6972 97.5029 20.8102 97.1889 20.8102ZM103.002 21.3002C103.486 21.3002 103.868 21.1422 104.149 20.8272C104.429 20.5122 104.569 20.0812 104.569 19.5352C104.569 18.9862 104.429 18.5552 104.149 18.2402C103.868 17.9262 103.486 17.7692 103.002 17.7692C102.518 17.7692 102.136 17.9262 101.855 18.2402C101.575 18.5552 101.435 18.9862 101.435 19.5352C101.435 20.0812 101.575 20.5122 101.855 20.8272C102.136 21.1422 102.518 21.3002 103.002 21.3002ZM103.002 20.8102C102.68 20.8102 102.432 20.6982 102.257 20.4742C102.083 20.2512 101.996 19.9372 101.996 19.5342C101.996 19.1302 102.083 18.8162 102.257 18.5942C102.432 18.3712 102.68 18.2592 103.002 18.2592C103.324 18.2592 103.572 18.3712 103.746 18.5932C103.921 18.8162 104.008 19.1302 104.008 19.5352C104.008 19.9372 103.921 20.2512 103.746 20.4752C103.572 20.6982 103.324 20.8102 103.002 20.8102ZM106.055 21.2402V19.2212C106.055 18.9212 106.136 18.6872 106.298 18.5162C106.46 18.3452 106.676 18.2592 106.948 18.2592C107.219 18.2592 107.42 18.3332 107.552 18.4812C107.683 18.6292 107.749 18.8562 107.749 19.1642V21.2402H108.292V19.0312C108.292 18.6262 108.189 18.3152 107.984 18.0972C107.779 17.8782 107.485 17.7692 107.102 17.7692C106.842 17.7692 106.628 17.8222 106.46 17.9272C106.292 18.033 106.16 18.1861 106.08 18.3672H106.03V17.8292H105.512V21.2402H106.055ZM64.9929 37.2322C66.2079 37.2322 67.1559 36.8852 67.8349 36.1912C68.5149 35.4972 68.8539 34.5342 68.8539 33.3022V32.4352H65.1499V33.4352H67.7179V33.6002C67.7179 34.3632 67.4659 34.9842 66.9609 35.4632C66.4559 35.9422 65.8009 36.1812 64.9929 36.1812C64.0669 36.1812 63.3359 35.8482 62.7969 35.1812C62.2589 34.5152 61.9899 33.6082 61.9899 32.4612C61.9899 31.3302 62.2559 30.4452 62.7879 29.8062C63.3199 29.1662 64.0549 28.8472 64.9929 28.8472C65.6329 28.8472 66.1799 29.0162 66.6359 29.3532C67.0929 29.6912 67.4159 30.1682 67.6049 30.7832H68.7969C68.6289 29.8762 68.1989 29.1522 67.5069 28.6102C66.8149 28.0682 65.9769 27.7972 64.9929 27.7972C63.7179 27.7972 62.7049 28.2192 61.9519 29.0622C61.1989 29.9062 60.8219 31.0412 60.8219 32.4672C60.8219 33.9182 61.1999 35.0752 61.9549 35.9372C62.7099 36.8012 63.7229 37.2322 64.9929 37.2322ZM74.7769 37.2322C76.0679 37.2322 77.0909 36.8082 77.8429 35.9602C78.5959 35.1122 78.9729 33.9642 78.9729 32.5172C78.9729 31.0672 78.5959 29.9172 77.8429 29.0692C77.0909 28.2212 76.0679 27.7972 74.7769 27.7972C73.4859 27.7972 72.4639 28.2212 71.7109 29.0692C70.9579 29.9172 70.5809 31.0662 70.5809 32.5172C70.5809 33.9642 70.9579 35.1122 71.7109 35.9602C72.4639 36.8082 73.4859 37.2322 74.7769 37.2322ZM74.7769 36.1822C73.8469 36.1822 73.1099 35.8522 72.5659 35.1922C72.0209 34.5312 71.7489 33.6402 71.7489 32.5172C71.7489 31.3912 72.0209 30.4972 72.5659 29.8372C73.1099 29.1772 73.8479 28.8472 74.7769 28.8472C75.7069 28.8472 76.4439 29.1772 76.9889 29.8372C77.5329 30.4972 77.8059 31.3912 77.8059 32.5172C77.8059 33.6402 77.5329 34.5312 76.9889 35.1912C76.4439 35.8512 75.7069 36.1812 74.7769 36.1812V36.1822ZM84.8579 37.2322C86.1489 37.2322 87.1709 36.8082 87.9239 35.9602C88.6769 35.1122 89.0539 33.9642 89.0539 32.5172C89.0539 31.0672 88.6769 29.9172 87.9239 29.0692C87.1709 28.2212 86.1489 27.7972 84.8579 27.7972C83.5669 27.7972 82.5449 28.2212 81.7919 29.0692C81.0389 29.9172 80.6619 31.0662 80.6619 32.5172C80.6619 33.9642 81.0389 35.1122 81.7919 35.9602C82.5449 36.8082 83.5669 37.2322 84.8579 37.2322ZM84.8579 36.1822C83.9279 36.1822 83.1909 35.8522 82.6469 35.1922C82.1019 34.5312 81.8299 33.6402 81.8299 32.5172C81.8299 31.3912 82.1019 30.4972 82.6469 29.8372C83.1909 29.1772 83.9289 28.8472 84.8579 28.8472C85.7879 28.8472 86.5249 29.1772 87.0689 29.8372C87.6139 30.4972 87.8859 31.3912 87.8859 32.5172C87.8859 33.6402 87.6139 34.5312 87.0689 35.1912C86.5249 35.8512 85.7879 36.1812 84.8589 36.1812L84.8579 36.1822ZM94.9139 37.2322C96.1289 37.2322 97.0769 36.8852 97.7559 36.1912C98.4359 35.4972 98.7749 34.5342 98.7749 33.3022V32.4352H95.0719V33.4352H97.6389V33.6002C97.6389 34.3632 97.3869 34.9842 96.8819 35.4632C96.3779 35.9422 95.7219 36.1812 94.9139 36.1812C93.9879 36.1812 93.2569 35.8482 92.7179 35.1812C92.1799 34.5152 91.9109 33.6082 91.9109 32.4612C91.9109 31.3302 92.1769 30.4452 92.7089 29.8062C93.2409 29.1662 93.9759 28.8472 94.9139 28.8472C95.5539 28.8472 96.1009 29.0162 96.5569 29.3532C97.0139 29.6912 97.3369 30.1682 97.5259 30.7832H98.7179C98.5499 29.8762 98.1199 29.1522 97.4279 28.6102C96.7359 28.0682 95.8979 27.7972 94.9139 27.7972C93.6389 27.7972 92.6259 28.2192 91.8729 29.0622C91.1199 29.9062 90.7429 31.0412 90.7429 32.4672C90.7429 33.9182 91.1209 35.0752 91.8759 35.9372C92.6309 36.8012 93.6439 37.2322 94.9139 37.2322ZM106.383 37.0802V36.0552H101.992V27.9492H100.856V37.0802H106.383ZM113.903 37.0802V36.0552H109.397V32.9162H113.669V31.9042H109.397V28.9742H113.902V27.9492H108.262V37.0802H113.902H113.903ZM120.443 37.0802V33.8212H122.543C123.397 33.8212 124.099 33.5472 124.648 32.9982C125.196 32.4502 125.471 31.7432 125.471 30.8782C125.471 30.0142 125.199 29.3092 124.654 28.7652C124.109 28.2212 123.41 27.9492 122.556 27.9492H119.306V37.0802H120.443ZM122.26 32.8092H120.443V28.9602H122.26C122.912 28.9602 123.415 29.1292 123.77 29.4662C124.126 29.8042 124.304 30.2742 124.304 30.8772C124.304 31.4852 124.126 31.9582 123.771 32.2982C123.415 32.6382 122.911 32.8082 122.26 32.8082V32.8092ZM132.927 37.0802V36.0552H128.537V27.9492H127.4V37.0802H132.927ZM135.273 37.0802L136.188 34.4662H139.809C140.068 35.2055 140.326 35.9448 140.585 36.6842L140.725 37.0802H141.917L138.56 27.9492H137.437L134.081 37.0802H135.273ZM139.475 33.4982H136.522L136.671 33.0782C136.938 32.3178 137.204 31.5572 137.469 30.7962C137.612 30.3832 137.733 30.0362 137.832 29.7562L137.98 29.3342H138.018L139.475 33.4982ZM146.092 37.0802V33.1502L149.322 27.9492H148.029L145.543 32.0492H145.505L143.02 27.9492H141.726L144.956 33.1502V37.0802H146.092Z" fill="white"/>
<path opacity="0.701" d="M31.906 47.605C43.2615 47.605 52.467 38.3798 52.467 27C52.467 15.6202 43.2615 6.39502 31.906 6.39502C20.5504 6.39502 11.345 15.6202 11.345 27C11.345 38.3798 20.5504 47.605 31.906 47.605Z" stroke="white"/>
<path d="M38.6459 23.89L25.6149 16.78C25.2449 16.579 24.9049 16.532 24.6279 16.617L35.3019 27.21L38.6459 23.89" fill="url(#paint0_linear_10:462)"/>
<path fill-rule="evenodd" clip-rule="evenodd" d="M38.663 30.5441L43.111 28.1171C44.013 27.6231 44.013 26.8191 43.111 26.3271L38.646 23.8901L35.302 27.2091L38.662 30.5441" fill="url(#paint1_linear_10:462)"/>
<path d="M24.628 16.6172C24.231 16.7402 23.975 17.1402 23.975 17.7412L23.977 36.7012C23.977 37.2982 24.226 37.6902 24.61 37.8212L35.302 27.2112L24.628 16.6162" fill="url(#paint2_linear_10:462)"/>
<path d="M24.61 37.82C24.888 37.914 25.236 37.87 25.615 37.664L38.661 30.544L35.302 27.21L24.61 37.82Z" fill="url(#paint3_linear_10:462)"/>
<defs>
<linearGradient id="paint0_linear_10:462" x1="27.3215" y1="16.6841" x2="31.9829" y2="25.7675" gradientUnits="userSpaceOnUse">
<stop stop-color="#19A3B4"/>
<stop offset="0.34817" stop-color="#5BC3AF"/>
<stop offset="0.92234" stop-color="#C8F7A6"/>
<stop offset="1" stop-color="#D7FEA5"/>
</linearGradient>
<linearGradient id="paint1_linear_10:462" x1="34.0548" y1="20.4941" x2="39.3118" y2="31.0121" gradientUnits="userSpaceOnUse">
<stop stop-color="#FC227C"/>
<stop offset="1" stop-color="#FEEB7B"/>
</linearGradient>
<linearGradient id="paint2_linear_10:462" x1="28.9321" y1="13.4749" x2="31.1832" y2="34.0182" gradientUnits="userSpaceOnUse">
<stop stop-color="#0E4DA0"/>
<stop offset="1" stop-color="#6BFED4"/>
</linearGradient>
<linearGradient id="paint3_linear_10:462" x1="43.1917" y1="30.4827" x2="27.7328" y2="40.6812" gradientUnits="userSpaceOnUse">
<stop stop-color="#FC472E"/>
<stop offset="0.00332" stop-color="#FC472F"/>
<stop offset="1" stop-color="#893CD8"/>
</linearGradient>
</defs>
</svg>
