<svg width="150" height="50" viewBox="0 0 150 50" fill="none" xmlns="http://www.w3.org/2000/svg">
<path fill-rule="evenodd" clip-rule="evenodd" d="M149.167 0.833333H0.833333V49.1667H149.167V0.833333ZM0 0V50H150V0H0Z" fill="#0C2F75"/>
<path d="M28.1909 27.6287C30.0289 26.6195 31.4222 25.8505 31.5423 25.7907C31.9265 25.5864 32.3233 25.0456 31.5423 24.6256C31.2902 24.4935 29.9326 23.7484 28.1909 22.7876L25.7764 25.2261L28.1909 27.6286V27.6287Z" fill="#FFD900"/>
<path d="M25.7761 25.2257L18.0879 32.9742C18.2683 32.9981 18.4721 32.9503 18.7123 32.8182C19.2166 32.5422 24.5625 29.6228 28.1906 27.6289L25.7761 25.2257Z" fill="#F43249"/>
<path d="M25.7773 25.2259L28.1918 22.7994C28.1918 22.7994 19.2542 17.9218 18.7135 17.6339C18.5098 17.5132 18.2814 17.4774 18.0771 17.5132L25.7773 25.2259Z" fill="#00EE76"/>
<path d="M25.7767 25.2289L18.0766 17.5162C17.7641 17.5885 17.5 17.8646 17.5 18.4292V32.0645C17.5 32.5813 17.7044 32.9535 18.0885 32.9894L25.7767 25.2289Z" fill="#00D3FF"/>
<path d="M47.4942 16.9466V17.1866C47.4942 17.7644 47.2876 18.2533 46.8742 18.6533C46.4609 19.0489 45.9076 19.2466 45.2142 19.2466C44.5076 19.2466 43.9231 19.0133 43.4609 18.5466C42.9987 18.08 42.7676 17.5089 42.7676 16.8333C42.7676 16.1578 42.9987 15.5866 43.4609 15.12C43.9231 14.6533 44.5076 14.42 45.2142 14.42C45.6454 14.42 46.0409 14.5244 46.4009 14.7333C46.7609 14.9422 47.0387 15.22 47.2342 15.5666L46.8209 15.8066C46.6742 15.5222 46.4565 15.2955 46.1676 15.1266C45.8787 14.9578 45.5609 14.8733 45.2142 14.8733C44.632 14.8733 44.1565 15.0622 43.7876 15.44C43.4187 15.8178 43.2342 16.2822 43.2342 16.8333C43.2342 17.3844 43.4187 17.8489 43.7876 18.2266C44.1565 18.6044 44.632 18.7933 45.2142 18.7933C45.7387 18.7933 46.1587 18.6622 46.4742 18.4C46.7898 18.1333 46.9698 17.7955 47.0142 17.3866H45.1609V16.9466H47.4942Z" fill="#0C2F75"/>
<path d="M49.768 15.7533C50.2613 15.7533 50.6591 15.9289 50.9613 16.28C51.268 16.6266 51.4213 17.0378 51.4213 17.5133C51.4213 17.5622 51.4169 17.6311 51.408 17.72H48.4813C48.5258 18.0578 48.668 18.3266 48.908 18.5266C49.1524 18.7222 49.4524 18.82 49.808 18.82C50.0613 18.82 50.2791 18.7689 50.4613 18.6666C50.648 18.56 50.788 18.4222 50.8813 18.2533L51.268 18.48C51.1213 18.7155 50.9213 18.9022 50.668 19.04C50.4147 19.1778 50.1258 19.2466 49.8013 19.2466C49.2769 19.2466 48.8502 19.0822 48.5213 18.7533C48.1924 18.4244 48.028 18.0066 48.028 17.5C48.028 17.0022 48.1902 16.5866 48.5147 16.2533C48.8391 15.92 49.2569 15.7533 49.768 15.7533ZM49.768 16.18C49.4213 16.18 49.1302 16.2844 48.8947 16.4933C48.6636 16.6978 48.5258 16.9644 48.4813 17.2933H50.968C50.9236 16.9422 50.788 16.6689 50.5613 16.4733C50.3347 16.2778 50.0702 16.18 49.768 16.18Z" fill="#0C2F75"/>
<path d="M53.7902 16.26H52.8302V18.28C52.8302 18.4622 52.8658 18.5933 52.9369 18.6733C53.008 18.7489 53.1147 18.7889 53.2569 18.7933C53.3991 18.7933 53.5769 18.7889 53.7902 18.78V19.1666C53.3236 19.2378 52.9725 19.2044 52.7369 19.0666C52.5058 18.9289 52.3902 18.6666 52.3902 18.28V16.26H51.6902V15.8333H52.3902V15.0333L52.8302 14.9V15.8333H53.7902V16.26Z" fill="#0C2F75"/>
<path d="M56.6369 15.0333C56.5747 15.0955 56.4991 15.1266 56.4102 15.1266C56.3213 15.1266 56.2458 15.0955 56.1836 15.0333C56.1213 14.9711 56.0902 14.8955 56.0902 14.8066C56.0902 14.7178 56.1213 14.6422 56.1836 14.58C56.2458 14.5178 56.3213 14.4866 56.4102 14.4866C56.4991 14.4866 56.5747 14.5178 56.6369 14.58C56.6991 14.6422 56.7302 14.7178 56.7302 14.8066C56.7302 14.8955 56.6991 14.9711 56.6369 15.0333ZM56.1902 19.1666V15.8333H56.6302V19.1666H56.1902Z" fill="#0C2F75"/>
<path d="M59.3306 16.26H58.3706V18.28C58.3706 18.4622 58.4062 18.5933 58.4773 18.6733C58.5484 18.7489 58.655 18.7889 58.7973 18.7933C58.9395 18.7933 59.1173 18.7889 59.3306 18.78V19.1666C58.8639 19.2378 58.5128 19.2044 58.2773 19.0666C58.0462 18.9289 57.9306 18.6666 57.9306 18.28V16.26H57.2306V15.8333H57.9306V15.0333L58.3706 14.9V15.8333H59.3306V16.26Z" fill="#0C2F75"/>
<path d="M64.5239 18.7466C64.1862 19.08 63.7728 19.2466 63.2839 19.2466C62.795 19.2466 62.3795 19.08 62.0373 18.7466C61.6995 18.4089 61.5306 17.9933 61.5306 17.5C61.5306 17.0066 61.6995 16.5933 62.0373 16.26C62.3795 15.9222 62.795 15.7533 63.2839 15.7533C63.7728 15.7533 64.1862 15.9222 64.5239 16.26C64.8662 16.5933 65.0373 17.0066 65.0373 17.5C65.0373 17.9933 64.8662 18.4089 64.5239 18.7466ZM62.3506 18.44C62.6039 18.6933 62.915 18.82 63.2839 18.82C63.6528 18.82 63.9639 18.6933 64.2173 18.44C64.4706 18.1822 64.5973 17.8689 64.5973 17.5C64.5973 17.1311 64.4706 16.82 64.2173 16.5666C63.9639 16.3089 63.6528 16.18 63.2839 16.18C62.915 16.18 62.6039 16.3089 62.3506 16.5666C62.0973 16.82 61.9706 17.1311 61.9706 17.5C61.9706 17.8689 62.0973 18.1822 62.3506 18.44Z" fill="#0C2F75"/>
<path d="M67.3336 15.7533C67.738 15.7533 68.0558 15.8778 68.2869 16.1266C68.5225 16.3711 68.6402 16.7022 68.6402 17.12V19.1666H68.2002V17.12C68.2002 16.8222 68.1202 16.5911 67.9602 16.4266C67.8047 16.2622 67.5825 16.18 67.2936 16.18C66.9736 16.18 66.7136 16.2822 66.5136 16.4866C66.3136 16.6866 66.2136 16.9978 66.2136 17.42V19.1666H65.7736V15.8333H66.2136V16.3533C66.4625 15.9533 66.8358 15.7533 67.3336 15.7533Z" fill="#0C2F75"/>
<path d="M52.0984 27.9033V28.6233C52.0984 30.0633 51.6234 31.2433 50.6734 32.1633C49.7234 33.0733 48.4834 33.5283 46.9534 33.5283C45.3334 33.5283 43.9934 33.0033 42.9334 31.9533C41.8834 30.9033 41.3584 29.6133 41.3584 28.0833C41.3584 26.5633 41.8834 25.2783 42.9334 24.2283C43.9934 23.1683 45.3034 22.6383 46.8634 22.6383C47.8434 22.6383 48.7384 22.8633 49.5484 23.3133C50.3584 23.7633 50.9884 24.3683 51.4384 25.1283L49.9534 25.9833C49.6734 25.4833 49.2584 25.0833 48.7084 24.7833C48.1584 24.4733 47.5434 24.3183 46.8634 24.3183C45.7634 24.3183 44.8584 24.6783 44.1484 25.3983C43.4384 26.1183 43.0834 27.0183 43.0834 28.0983C43.0834 29.1783 43.4384 30.0733 44.1484 30.7833C44.8684 31.4933 45.8084 31.8483 46.9684 31.8483C47.8984 31.8483 48.6534 31.6333 49.2334 31.2033C49.8234 30.7633 50.1984 30.1783 50.3584 29.4483H46.8484V27.9033H52.0984Z" fill="#0C2F75"/>
<path d="M57.1104 33.5283C56.0104 33.5283 55.0754 33.1483 54.3054 32.3883C53.5354 31.6283 53.1504 30.6933 53.1504 29.5833C53.1504 28.4733 53.5354 27.5383 54.3054 26.7783C55.0754 26.0183 56.0104 25.6383 57.1104 25.6383C58.2204 25.6383 59.1554 26.0183 59.9154 26.7783C60.6854 27.5383 61.0704 28.4733 61.0704 29.5833C61.0704 30.6933 60.6854 31.6283 59.9154 32.3883C59.1554 33.1483 58.2204 33.5283 57.1104 33.5283ZM55.4454 31.2783C55.8954 31.7283 56.4504 31.9533 57.1104 31.9533C57.7704 31.9533 58.3254 31.7283 58.7754 31.2783C59.2254 30.8283 59.4504 30.2633 59.4504 29.5833C59.4504 28.9033 59.2254 28.3383 58.7754 27.8883C58.3254 27.4383 57.7704 27.2133 57.1104 27.2133C56.4504 27.2133 55.8954 27.4383 55.4454 27.8883C54.9954 28.3383 54.7704 28.9033 54.7704 29.5833C54.7704 30.2633 54.9954 30.8283 55.4454 31.2783Z" fill="#0C2F75"/>
<path d="M66.0752 33.5283C64.9752 33.5283 64.0402 33.1483 63.2702 32.3883C62.5002 31.6283 62.1152 30.6933 62.1152 29.5833C62.1152 28.4733 62.5002 27.5383 63.2702 26.7783C64.0402 26.0183 64.9752 25.6383 66.0752 25.6383C67.1852 25.6383 68.1202 26.0183 68.8802 26.7783C69.6502 27.5383 70.0352 28.4733 70.0352 29.5833C70.0352 30.6933 69.6502 31.6283 68.8802 32.3883C68.1202 33.1483 67.1852 33.5283 66.0752 33.5283ZM64.4102 31.2783C64.8602 31.7283 65.4152 31.9533 66.0752 31.9533C66.7352 31.9533 67.2902 31.7283 67.7402 31.2783C68.1902 30.8283 68.4152 30.2633 68.4152 29.5833C68.4152 28.9033 68.1902 28.3383 67.7402 27.8883C67.2902 27.4383 66.7352 27.2133 66.0752 27.2133C65.4152 27.2133 64.8602 27.4383 64.4102 27.8883C63.9602 28.3383 63.7352 28.9033 63.7352 29.5833C63.7352 30.2633 63.9602 30.8283 64.4102 31.2783Z" fill="#0C2F75"/>
<path d="M77.4701 25.8333H79.0601V32.9883C79.0601 34.1283 78.6851 35.0033 77.9351 35.6133C77.1851 36.2233 76.2751 36.5283 75.2051 36.5283C73.4751 36.5283 72.2901 35.9233 71.6501 34.7133L73.0451 33.9033C73.4351 34.6733 74.1651 35.0583 75.2351 35.0583C75.9351 35.0583 76.4801 34.8733 76.8701 34.5033C77.2701 34.1433 77.4701 33.6383 77.4701 32.9883V32.0733C76.8601 32.9433 75.9901 33.3783 74.8601 33.3783C73.8001 33.3783 72.9051 33.0033 72.1751 32.2533C71.4451 31.4933 71.0801 30.5783 71.0801 29.5083C71.0801 28.4383 71.4451 27.5283 72.1751 26.7783C72.9051 26.0183 73.8001 25.6383 74.8601 25.6383C75.9901 25.6383 76.8601 26.0733 77.4701 26.9433V25.8333ZM73.3751 31.1883C73.8351 31.6383 74.4051 31.8633 75.0851 31.8633C75.7651 31.8633 76.3301 31.6383 76.7801 31.1883C77.2401 30.7383 77.4701 30.1783 77.4701 29.5083C77.4701 28.8383 77.2401 28.2783 76.7801 27.8283C76.3301 27.3783 75.7651 27.1533 75.0851 27.1533C74.4051 27.1533 73.8351 27.3783 73.3751 27.8283C72.9251 28.2783 72.7001 28.8383 72.7001 29.5083C72.7001 30.1783 72.9251 30.7383 73.3751 31.1883Z" fill="#0C2F75"/>
<path d="M80.9483 33.3333V22.3833H82.5683V33.3333H80.9483Z" fill="#0C2F75"/>
<path d="M85.7243 30.2733C85.8443 30.8433 86.1193 31.2833 86.5493 31.5933C86.9793 31.8933 87.5043 32.0433 88.1243 32.0433C88.9843 32.0433 89.6293 31.7333 90.0593 31.1133L91.3943 31.8933C90.6543 32.9833 89.5593 33.5283 88.1093 33.5283C86.8893 33.5283 85.9043 33.1583 85.1543 32.4183C84.4043 31.6683 84.0293 30.7233 84.0293 29.5833C84.0293 28.4633 84.3993 27.5283 85.1393 26.7783C85.8793 26.0183 86.8293 25.6383 87.9893 25.6383C89.0893 25.6383 89.9893 26.0233 90.6893 26.7933C91.3993 27.5633 91.7543 28.4983 91.7543 29.5983C91.7543 29.7683 91.7343 29.9933 91.6943 30.2733H85.7243ZM85.7093 28.9533H90.1193C90.0093 28.3433 89.7543 27.8833 89.3543 27.5733C88.9643 27.2633 88.5043 27.1083 87.9743 27.1083C87.3743 27.1083 86.8743 27.2733 86.4743 27.6033C86.0743 27.9333 85.8193 28.3833 85.7093 28.9533Z" fill="#0C2F75"/>
<path d="M100.905 22.8333C101.895 22.8333 102.72 23.1633 103.38 23.8233C104.05 24.4833 104.385 25.3033 104.385 26.2833C104.385 27.2533 104.05 28.0733 103.38 28.7433C102.72 29.4033 101.895 29.7333 100.905 29.7333H98.7598V33.3333H97.0348V22.8333H100.905ZM100.905 28.1133C101.415 28.1133 101.835 27.9433 102.165 27.6033C102.495 27.2533 102.66 26.8133 102.66 26.2833C102.66 25.7533 102.495 25.3183 102.165 24.9783C101.835 24.6283 101.415 24.4533 100.905 24.4533H98.7598V28.1133H100.905Z" fill="#0C2F75"/>
<path d="M105.777 33.3333V22.3833H107.397V33.3333H105.777Z" fill="#0C2F75"/>
<path d="M115.218 25.8333H116.838V33.3333H115.218V32.2533C114.608 33.1033 113.733 33.5283 112.593 33.5283C111.563 33.5283 110.683 33.1483 109.953 32.3883C109.223 31.6183 108.858 30.6833 108.858 29.5833C108.858 28.4733 109.223 27.5383 109.953 26.7783C110.683 26.0183 111.563 25.6383 112.593 25.6383C113.733 25.6383 114.608 26.0583 115.218 26.8983V25.8333ZM111.153 31.3083C111.603 31.7583 112.168 31.9833 112.848 31.9833C113.528 31.9833 114.093 31.7583 114.543 31.3083C114.993 30.8483 115.218 30.2733 115.218 29.5833C115.218 28.8933 114.993 28.3233 114.543 27.8733C114.093 27.4133 113.528 27.1833 112.848 27.1833C112.168 27.1833 111.603 27.4133 111.153 27.8733C110.703 28.3233 110.478 28.8933 110.478 29.5833C110.478 30.2733 110.703 30.8483 111.153 31.3083Z" fill="#0C2F75"/>
<path d="M123.782 25.8333H125.507L122.627 33.5733C121.907 35.5133 120.687 36.4333 118.967 36.3333V34.8183C119.477 34.8483 119.887 34.7383 120.197 34.4883C120.507 34.2483 120.762 33.8683 120.962 33.3483L121.037 33.1983L117.857 25.8333H119.627L121.862 31.2783L123.782 25.8333Z" fill="#0C2F75"/>
</svg>
