<svg width="21" height="22" viewBox="0 0 21 22" fill="none" xmlns="http://www.w3.org/2000/svg">
<path d="M15.6459 7.89001L2.61493 0.780005C2.24493 0.579005 1.90493 0.532005 1.62793 0.617005L12.3019 11.21L15.6459 7.89001Z" fill="url(#paint0_linear_10:466)"/>
<path fill-rule="evenodd" clip-rule="evenodd" d="M15.663 14.5441L20.111 12.1171C21.013 11.6231 21.013 10.8191 20.111 10.3271L15.646 7.89014L12.302 11.2091L15.662 14.5441" fill="url(#paint1_linear_10:466)"/>
<path d="M1.62798 0.617211C1.23098 0.740211 0.974976 1.14021 0.974976 1.74121L0.976976 20.7012C0.976976 21.2982 1.22598 21.6902 1.60998 21.8212L12.302 11.2112L1.62798 0.616211" fill="url(#paint2_linear_10:466)"/>
<path d="M1.60999 21.82C1.88799 21.914 2.23599 21.87 2.61499 21.664L15.661 14.544L12.302 11.21L1.60999 21.82Z" fill="url(#paint3_linear_10:466)"/>
<defs>
<linearGradient id="paint0_linear_10:466" x1="4.32149" y1="0.684057" x2="8.98291" y2="9.76754" gradientUnits="userSpaceOnUse">
<stop stop-color="#19A3B4"/>
<stop offset="0.34817" stop-color="#5BC3AF"/>
<stop offset="0.92234" stop-color="#C8F7A6"/>
<stop offset="1" stop-color="#D7FEA5"/>
</linearGradient>
<linearGradient id="paint1_linear_10:466" x1="11.0548" y1="4.49413" x2="16.3118" y2="15.0121" gradientUnits="userSpaceOnUse">
<stop stop-color="#FC227C"/>
<stop offset="1" stop-color="#FEEB7B"/>
</linearGradient>
<linearGradient id="paint2_linear_10:466" x1="5.93212" y1="-2.5251" x2="8.18317" y2="18.0182" gradientUnits="userSpaceOnUse">
<stop stop-color="#0E4DA0"/>
<stop offset="1" stop-color="#6BFED4"/>
</linearGradient>
<linearGradient id="paint3_linear_10:466" x1="20.1917" y1="14.4827" x2="4.7328" y2="24.6812" gradientUnits="userSpaceOnUse">
<stop stop-color="#FC472E"/>
<stop offset="0.00332" stop-color="#FC472F"/>
<stop offset="1" stop-color="#893CD8"/>
</linearGradient>
</defs>
</svg>
