<svg width="6" height="12" viewBox="0 0 6 12" fill="none" xmlns="http://www.w3.org/2000/svg">
<path d="M5.92065 11.5159L0.638419 6.00019L0.675342 5.96168L5.92317 0.482718C5.97288 0.428167 6.00024 0.35556 5.99946 0.280308C5.99867 0.205057 5.9698 0.133086 5.91897 0.0796731C5.86755 0.0276406 5.79844 -0.00100153 5.7268 2.6761e-05C5.69074 -0.000464079 5.65495 0.00647349 5.62146 0.0204414C5.58798 0.0344092 5.55748 0.0551328 5.53169 0.0814237L0.0753273 5.7792C0.0490767 5.80739 0.0289071 5.8411 0.0161707 5.87808C0.00343423 5.91507 -0.00157503 5.95446 0.00147906 5.99363C-0.002671 6.03521 0.00193791 6.07724 0.0149834 6.11677C0.028029 6.15631 0.0491964 6.19239 0.0770056 6.2225L5.53756 11.9251C5.63994 12.0257 5.81407 12.0271 5.92401 11.9163C5.97337 11.8622 6.00062 11.7901 5.99999 11.7154C5.99936 11.6407 5.97091 11.5692 5.92065 11.5159Z" fill="#0C2F75"/>
</svg>
