<svg width="25" height="20" viewBox="0 0 25 20" fill="none" xmlns="http://www.w3.org/2000/svg">
<path d="M25.0004 2.37236C24.0987 2.77326 23.1301 3.04414 22.1118 3.16658C23.1625 2.53575 23.9485 1.5429 24.3233 0.373289C23.3362 0.961624 22.2558 1.37575 21.1291 1.59766C20.3715 0.78596 19.368 0.247955 18.2744 0.0671694C17.1808 -0.113617 16.0583 0.0729309 15.0812 0.59785C14.1041 1.12277 13.327 1.95669 12.8707 2.97014C12.4143 3.98359 12.3041 5.11988 12.5573 6.20257C10.5571 6.1018 8.60038 5.58015 6.8141 4.67147C5.02782 3.76279 3.45192 2.48739 2.18868 0.928046C1.75674 1.67567 1.50838 2.54248 1.50838 3.46563C1.50789 4.29667 1.71185 5.11499 2.10216 5.84798C2.49246 6.58096 3.05705 7.20594 3.74581 7.66748C2.94703 7.64198 2.16586 7.42541 1.46734 7.03579V7.1008C1.46726 8.26638 1.86908 9.39609 2.60461 10.2982C3.34015 11.2004 4.3641 11.8194 5.50272 12.0503C4.76171 12.2515 3.98482 12.2811 3.23073 12.137C3.55198 13.1399 4.17774 14.0169 5.02042 14.6452C5.8631 15.2735 6.88051 15.6217 7.9302 15.641C6.14828 17.0446 3.94762 17.806 1.68223 17.8026C1.28094 17.8027 0.87999 17.7792 0.481445 17.7322C2.78095 19.2157 5.45773 20.003 8.19153 20C17.4458 20 22.5048 12.3092 22.5048 5.63915C22.5048 5.42245 22.4994 5.20358 22.4897 4.98687C23.4738 4.27281 24.3232 3.38858 24.9982 2.37562L25.0004 2.37236Z" fill="#17206A"/>
</svg>
